<?xml version="1.0" encoding="iso-8859-1"?>
<!-- Generator: Adobe Illustrator 19.0.0, SVG Export Plug-In . SVG Version: 6.00 Build 0)  -->
<svg version="1.1" id="Layer_1" xmlns="http://www.w3.org/2000/svg" xmlns:xlink="http://www.w3.org/1999/xlink" x="0px" y="0px"
	 viewBox="0 0 512 512" style="enable-background:new 0 0 512 512;" xml:space="preserve">
<path style="fill:#d2d2d2;" d="M278.261,434.087h-44.522c-12.295,0-22.261-9.966-22.261-22.261V22.261
	C211.478,9.966,221.444,0,233.739,0h44.522c12.295,0,22.261,9.966,22.261,22.261v389.565
	C300.522,424.121,290.556,434.087,278.261,434.087z"/>
<path style="fill:#d2d2d2;" d="M144.696,434.087h-44.522c-12.295,0-22.261-9.966-22.261-22.261v-256
	c0-12.295,9.966-22.261,22.261-22.261h44.522c12.295,0,22.261,9.966,22.261,22.261v256
	C166.957,424.121,156.99,434.087,144.696,434.087z"/>
<path style="fill:#d2d2d2;" d="M411.826,434.087h-44.522c-12.295,0-22.261-9.966-22.261-22.261V278.261
	c0-12.295,9.966-22.261,22.261-22.261h44.522c12.295,0,22.261,9.966,22.261,22.261v133.565
	C434.087,424.121,424.121,434.087,411.826,434.087z"/>
</svg>
