<svg xmlns="http://www.w3.org/2000/svg" width="38" height="20" viewBox="0 0 38 20">
  <metadata><?xpacket begin="﻿" id="W5M0MpCehiHzreSzNTczkc9d"?>
<x:xmpmeta xmlns:x="adobe:ns:meta/" x:xmptk="Adobe XMP Core 5.6-c138 79.159824, 2016/09/14-01:09:01        ">
   <rdf:RDF xmlns:rdf="http://www.w3.org/1999/02/22-rdf-syntax-ns#">
      <rdf:Description rdf:about=""/>
   </rdf:RDF>
</x:xmpmeta>
<?xpacket end="w"?></metadata>
<defs>
    <style>
      .aside-lk-icon {
        fill: #404040;
        fill-rule: evenodd;
      }
    </style>
  </defs>
  <path class="aside-lk-icon" d="M556.1,450.049c0.1,0,.2.1,0.3,0.1h5.717a1.215,1.215,0,0,0,1.2-1.195V443.18a1.094,1.094,0,0,0-.6-1,1.453,1.453,0,0,0-.7-0.2H556.3a1.309,1.309,0,0,0-1.3,1.194v5.675A1.381,1.381,0,0,0,556.1,450.049Zm4.714-2.488h-3.21v-3.186h3.21v3.186Zm7.522-3.186h23.451a1.214,1.214,0,0,0,1.2-1.195,1.093,1.093,0,0,0-.6-1,1.453,1.453,0,0,0-.7-0.2H568.337a1.45,1.45,0,0,0-.7.2,1.318,1.318,0,0,0-.6,1A1.24,1.24,0,0,0,568.337,444.375Zm0,5.674H588.98a1.214,1.214,0,0,0,1.2-1.194,1.289,1.289,0,0,0-1.2-1.195H568.337A1.195,1.195,0,1,0,568.337,450.049ZM556.1,461.9c0.1,0,.2.1,0.3,0.1h5.717a1.215,1.215,0,0,0,1.2-1.195v-5.674a1.215,1.215,0,0,0-1.2-1.194H556.4a0.37,0.37,0,0,0-.3.1,1.185,1.185,0,0,0-1,1.195V460.9A1.262,1.262,0,0,0,556.1,461.9Zm1.5-5.675h3.21v3.186h-3.21v-3.186Zm10.732,0h23.451a1.195,1.195,0,1,0,0-2.389H568.337a1.215,1.215,0,0,0-1.2,1.195A1.1,1.1,0,0,0,568.337,456.221Zm0,5.675H588.98a1.2,1.2,0,1,0,0-2.39H568.337a1.216,1.216,0,0,0-1.2,1.2A1.1,1.1,0,0,0,568.337,461.9Z" transform="translate(-555 -442)"/>
</svg>
