<svg xmlns="http://www.w3.org/2000/svg" width="39" height="41" viewBox="0 0 39 41">
  <metadata><?xpacket begin="﻿" id="W5M0MpCehiHzreSzNTczkc9d"?>
<x:xmpmeta xmlns:x="adobe:ns:meta/" x:xmptk="Adobe XMP Core 5.6-c138 79.159824, 2016/09/14-01:09:01        ">
   <rdf:RDF xmlns:rdf="http://www.w3.org/1999/02/22-rdf-syntax-ns#">
      <rdf:Description rdf:about=""/>
   </rdf:RDF>
</x:xmpmeta>
<?xpacket end="w"?></metadata>
<defs>
    <style>
      .aside-lk-icon {
        fill: #404040;
        fill-rule: evenodd;
      }
    </style>
  </defs>
  <path class="aside-lk-icon" d="M591.922,710.767a0.594,0.594,0,0,0-.138-0.229,1.978,1.978,0,0,0-.5-0.408,0.56,0.56,0,0,1-.106-0.045,2.568,2.568,0,0,0-.453-0.1H563.083a1.209,1.209,0,0,0-1.011.5l-8.863,10.957-0.2.279v28.009A1.3,1.3,0,0,0,554.276,751h27.912a0.38,0.38,0,0,0,.33-0.133,0.294,0.294,0,0,0,.064-0.063l0.023-.017a0.581,0.581,0,0,0,.289-0.262l8.854-10.931a1.341,1.341,0,0,0,.247-0.75v-27.52A3.847,3.847,0,0,0,591.922,710.767Zm-3.832,1.759-6.836,8.419h-6.121l6.837-8.419h6.12Zm-21.832,8.419,6.837-8.419h5.582l-6.773,8.419h-5.646Zm-2.768,15.181h9.145a1.3,1.3,0,0,0,1.271-1.267V723.481h6.741v25.054H555.478V723.481h6.741v11.378A1.3,1.3,0,0,0,563.49,736.126Zm1.27-2.535v-10.11h6.605v10.11H564.76Zm-7.851-12.646,6.837-8.419h6.121l-6.837,8.419h-6.121Zm32.613-6.129v23.6l-6.335,7.826V722.641Z" transform="translate(-553 -710)"/>
</svg>
