<svg xmlns="http://www.w3.org/2000/svg" width="33" height="44" viewBox="0 0 33 44">
  <metadata><?xpacket begin="﻿" id="W5M0MpCehiHzreSzNTczkc9d"?>
<x:xmpmeta xmlns:x="adobe:ns:meta/" x:xmptk="Adobe XMP Core 5.6-c138 79.159824, 2016/09/14-01:09:01        ">
   <rdf:RDF xmlns:rdf="http://www.w3.org/1999/02/22-rdf-syntax-ns#">
      <rdf:Description rdf:about=""/>
   </rdf:RDF>
</x:xmpmeta>
<?xpacket end="w"?></metadata>
<defs>
    <style>
      .aside-lk-icon {
        fill: #404040;
        fill-rule: evenodd;
      }
    </style>
  </defs>
  <path class="aside-lk-icon" d="M584.406,591.585H564.6a1.246,1.246,0,0,0,0,2.491h19.809a1.246,1.246,0,0,0,0-2.491h0Zm4.13-11.329-6.36-.009a1.239,1.239,0,0,1-1.23-1.246v-6.512l-19.684.017h0c-0.033,0-.065,0-0.1,0a0.128,0.128,0,0,0-.029,0,0.8,0.8,0,0,0-.5.155,1,1,0,0,0-.171.652v37.075a1.253,1.253,0,0,0,1.323,1.119h26.338c0.266-.009.408-0.108,0.408-0.608V580.256Zm-5.128-2.5,3.407,0-3.407-3.487v3.482Zm7.59,1.255v31.882a3.086,3.086,0,0,1-.868,2.292,2.9,2.9,0,0,1-1.986.807H561.79a3.755,3.755,0,0,1-3.781-3.507l0-37.178a3.056,3.056,0,0,1,3.294-3.293L582.176,570h0a1.247,1.247,0,0,1,.244.025,1.224,1.224,0,0,1,.63.344h0l7.586,7.765a0,0,0,0,0,0,0l0,0c0.013,0.014.022,0.03,0.034,0.043a1.142,1.142,0,0,1,.116.144c0.013,0.02.022,0.043,0.034,0.063a1.2,1.2,0,0,1,.078.151c0.01,0.024.015,0.049,0.023,0.074a1.2,1.2,0,0,1,.047.158,1.308,1.308,0,0,1,.024.243h0Zm-6.592,18.308H564.6a1.246,1.246,0,0,0,0,2.491h19.809a1.246,1.246,0,0,0,0-2.491h0ZM564.6,585.851h19.809a1.246,1.246,0,0,1,0,2.491H564.6a1.246,1.246,0,0,1,0-2.491h0Zm9.106,16.755H564.6a1.246,1.246,0,0,0,0,2.491H573.7a1.246,1.246,0,0,0,0-2.491h0Z" transform="translate(-558 -570)"/>
</svg>
