<svg xmlns="http://www.w3.org/2000/svg" width="52" height="39" viewBox="0 0 52 39">
  <metadata><?xpacket begin="﻿" id="W5M0MpCehiHzreSzNTczkc9d"?>
<x:xmpmeta xmlns:x="adobe:ns:meta/" x:xmptk="Adobe XMP Core 5.6-c138 79.159824, 2016/09/14-01:09:01        ">
   <rdf:RDF xmlns:rdf="http://www.w3.org/1999/02/22-rdf-syntax-ns#">
      <rdf:Description rdf:about=""/>
   </rdf:RDF>
</x:xmpmeta>
<?xpacket end="w"?></metadata>
<defs>
    <style>
      .attention-icon {
        fill: #303030;
        fill-rule: evenodd;
      }
    </style>
  </defs>
  <path class="attention-icon" d="M433,1540a19.5,19.5,0,1,0,19.613,19.5A19.58,19.58,0,0,0,433,1540Zm0,35.62a16.12,16.12,0,1,1,16.213-16.12A16.184,16.184,0,0,1,433,1575.62Zm0.068-7.46a2.01,2.01,0,1,1-2.018,2.01A2.014,2.014,0,0,1,433.068,1568.16Zm2.147-20.37a2.863,2.863,0,0,0-4.3,0,2.423,2.423,0,0,0-.76,2.27l1.336,14.38a1.574,1.574,0,1,0,3.146,0l1.336-14.38A2.424,2.424,0,0,0,435.215,1547.79ZM410.4,1559.5a22.934,22.934,0,0,1,6.778-16.3,1.685,1.685,0,0,0,0-2.39,1.708,1.708,0,0,0-2.405,0,26.347,26.347,0,0,0,0,37.37,1.708,1.708,0,0,0,2.405,0,1.685,1.685,0,0,0,0-2.39A22.894,22.894,0,0,1,410.4,1559.5Zm40.829-18.75a1.707,1.707,0,0,0-2.4,0,1.685,1.685,0,0,0,0,2.39,22.976,22.976,0,0,1,0,32.59,1.685,1.685,0,0,0,0,2.39,1.707,1.707,0,0,0,2.4,0A26.347,26.347,0,0,0,451.228,1540.75Z" transform="translate(-407 -1540)"/>
</svg>
