<svg xmlns="http://www.w3.org/2000/svg" width="98" height="130" viewBox="0 0 98 130">
  <metadata><?xpacket begin="﻿" id="W5M0MpCehiHzreSzNTczkc9d"?>
<x:xmpmeta xmlns:x="adobe:ns:meta/" x:xmptk="Adobe XMP Core 5.6-c138 79.159824, 2016/09/14-01:09:01        ">
   <rdf:RDF xmlns:rdf="http://www.w3.org/1999/02/22-rdf-syntax-ns#">
      <rdf:Description rdf:about=""/>
   </rdf:RDF>
</x:xmpmeta>
<?xpacket end="w"?></metadata>
<defs>
    <style>
      .click-for-buy {
        fill: #ffeb9c;
        fill-rule: evenodd;
      }
    </style>
  </defs>
  <path class="click-for-buy" d="M1461.93,1269.91l-7.12-81.04c-0.54-4.63-4.61-7.87-9.9-7.87H1433v-9c0-12.68-8.97-23-20-23s-20,10.32-20,23v9h-11.91c-5.29,0-9.36,3.24-9.9,7.9l-7.12,81a8.146,8.146,0,0,0,1.95,6.45,8.026,8.026,0,0,0,6.1,2.65h81.76a8.026,8.026,0,0,0,6.1-2.65A8.123,8.123,0,0,0,1461.93,1269.91ZM1381.09,1187H1393v6.83a3,3,0,0,0,0,6h6a3,3,0,0,0,0-6V1187h28v6.83a3,3,0,0,0,0,6h6a3,3,0,0,0,0-6V1187h11.91c1.8,0,3.71.78,3.93,2.49l7.11,80.96,0.02,0.14a2.216,2.216,0,0,1-.47,1.77h0a2.078,2.078,0,0,1-1.62.64h-81.76a2.078,2.078,0,0,1-1.62-.64,2.254,2.254,0,0,1-.47-1.77l7.12-81.06C1377.38,1187.78,1379.29,1187,1381.09,1187Zm31.91-32c7.72,0,14,7.63,14,17v9h-28v-9C1399,1162.63,1405.28,1155,1413,1155Zm-12.84,69.95,9.29,28.41a2.987,2.987,0,0,0,2.72,2.04,2.954,2.954,0,0,0,2.85-1.76l3.36-6.52,12.15,10.5a2.956,2.956,0,0,0,1.95.72,3,3,0,0,0,2.15-.9l6.31-6.48a3,3,0,0,0,.84-2.22,2.965,2.965,0,0,0-1.03-2.14l-11.76-10.17,6.63-3.64a3,3,0,0,0-.68-5.65l-31.33-6.08A3,3,0,0,0,1400.16,1224.95Zm22.16,8.09a3.008,3.008,0,0,0-1.69,2.31,2.969,2.969,0,0,0,1.02,2.68l12.76,11.03-2.11,2.17-13.06-11.28a2.956,2.956,0,0,0-1.95-.72,2.659,2.659,0,0,0-.69.08,3,3,0,0,0-2.05,1.7l-1.81,3.25-5.26-16.3,17.79,3.35Zm-26.44-12.92a2.973,2.973,0,0,0,2.12.88,2.939,2.939,0,0,0,2.12-.88,2.994,2.994,0,0,0,0-4.24l-5.99-6a3.078,3.078,0,0,0-4.25,0,3.018,3.018,0,0,0,0,4.24ZM1409,1220a3,3,0,0,0,3-3v-6a3,3,0,0,0-6,0v6A3.009,3.009,0,0,0,1409,1220Zm-19,11a2.81,2.81,0,0,0,.5-0.04l6-1a3.011,3.011,0,0,0,2.46-3.45,3.014,3.014,0,0,0-3.45-2.47l-6,1a2.921,2.921,0,0,0-1.94,1.22A3,3,0,0,0,1390,1231Z" transform="translate(-1364 -1149)"/>
</svg>
