<svg xmlns="http://www.w3.org/2000/svg" width="13" height="13" viewBox="0 0 13 13">
  <metadata><?xpacket begin="﻿" id="W5M0MpCehiHzreSzNTczkc9d"?>
<x:xmpmeta xmlns:x="adobe:ns:meta/" x:xmptk="Adobe XMP Core 5.6-c138 79.159824, 2016/09/14-01:09:01        ">
   <rdf:RDF xmlns:rdf="http://www.w3.org/1999/02/22-rdf-syntax-ns#">
      <rdf:Description rdf:about=""/>
   </rdf:RDF>
</x:xmpmeta>
<?xpacket end="w"?></metadata>
<defs>
    <style>
      .clip {
        fill: #303030;
        fill-rule: evenodd;
      }
    </style>
  </defs>
  <path class="clip" d="M761,1349.04a0.607,0.607,0,0,0,.187.44,0.623,0.623,0,0,0,.438.19h0a0.621,0.621,0,0,0,.437-0.19,3.211,3.211,0,0,0-4.542-4.54l-6.585,6.58a3.211,3.211,0,0,0,4.543,4.54l4.459-4.46,0.021-.02a1.923,1.923,0,0,0-.084-2.62,1.879,1.879,0,0,0-1.354-.56h0a1.879,1.879,0,0,0-1.354.56l-3.668,3.66a0.611,0.611,0,0,0,0,.88,0.641,0.641,0,0,0,.875,0l3.668-3.67a0.705,0.705,0,0,1,.958,0,0.668,0.668,0,0,1,0,.96l-4.4,4.4a1.992,1.992,0,0,1-1.4.58h0a1.978,1.978,0,0,1-1.4-3.38l6.585-6.58a1.974,1.974,0,0,1,2.792,2.79A0.591,0.591,0,0,0,761,1349.04Z" transform="translate(-750 -1344)"/>
</svg>
