<svg xmlns="http://www.w3.org/2000/svg" width="20" height="25" viewBox="0 0 20 25">
  <metadata><?xpacket begin="﻿" id="W5M0MpCehiHzreSzNTczkc9d"?>
<x:xmpmeta xmlns:x="adobe:ns:meta/" x:xmptk="Adobe XMP Core 5.6-c138 79.159824, 2016/09/14-01:09:01        ">
   <rdf:RDF xmlns:rdf="http://www.w3.org/1999/02/22-rdf-syntax-ns#">
      <rdf:Description rdf:about=""/>
   </rdf:RDF>
</x:xmpmeta>
<?xpacket end="w"?></metadata>
<defs>
    <style>
      .content-icon7 {
        fill: #292929;
        fill-rule: evenodd;
      }
    </style>
  </defs>
  <path class="content-icon7" d="M395.237,697.307a0.757,0.757,0,0,0,.764-0.751V691.88a0.764,0.764,0,0,0-1.528,0V695.8h-1.018V685.366A3.394,3.394,0,0,0,390.033,682h-8.076a3.394,3.394,0,0,0-3.417,3.366V695.8h-1.019V691.88a0.764,0.764,0,0,0-1.527,0v4.676a0.757,0.757,0,0,0,.763.751h1.895a3.41,3.41,0,0,0,3.305,2.59h3.274v1.56l-5.271,1.413a0.75,0.75,0,0,0-.539.921,0.765,0.765,0,0,0,.937.531l4.919-1.3v0.736a0.764,0.764,0,0,0,1.527,0V703.09l4.649,1.232a0.765,0.765,0,0,0,.937-0.531,0.75,0.75,0,0,0-.539-0.921l-5.093-1.353V699.9h3.275a3.411,3.411,0,0,0,3.33-2.615Zm-5.2,1.087h-8.076a1.864,1.864,0,1,1-.2-3.722c0.065,0,.131,0,0.2,0h8.076a1.864,1.864,0,1,1,.2,3.722A1.6,1.6,0,0,1,390.033,698.394Zm1.894-4.659a3.436,3.436,0,0,0-1.894-.565h-8.076a3.437,3.437,0,0,0-1.895.565v-8.369a1.88,1.88,0,0,1,1.895-1.864h8.076a1.879,1.879,0,0,1,1.894,1.864h0v8.369Zm-3.875-6.992h-4.364a0.752,0.752,0,1,0,0,1.5h4.364A0.752,0.752,0,1,0,388.052,686.743Zm0,3.722h-4.364a0.752,0.752,0,1,0,0,1.5h4.364A0.752,0.752,0,1,0,388.052,690.465ZM380.3,704.994a1,1,0,1,1-1.018,1A1.01,1.01,0,0,1,380.3,704.994Zm5.76,0a1,1,0,1,1-1.019,1A1.01,1.01,0,0,1,386.061,704.994Zm5.759,0a1,1,0,1,1-1.018,1A1.009,1.009,0,0,1,391.82,704.994Z" transform="translate(-376 -682)"/>
</svg>
