<svg xmlns="http://www.w3.org/2000/svg" width="29" height="22" viewBox="0 0 29 22">
  <metadata><?xpacket begin="﻿" id="W5M0MpCehiHzreSzNTczkc9d"?>
<x:xmpmeta xmlns:x="adobe:ns:meta/" x:xmptk="Adobe XMP Core 5.6-c138 79.159824, 2016/09/14-01:09:01        ">
   <rdf:RDF xmlns:rdf="http://www.w3.org/1999/02/22-rdf-syntax-ns#">
      <rdf:Description rdf:about=""/>
   </rdf:RDF>
</x:xmpmeta>
<?xpacket end="w"?></metadata>
<defs>
    <style>
      .content-icon3 {
        fill: #292929;
        fill-rule: evenodd;
      }
    </style>
  </defs>
  <path class="content-icon3" d="M388.822,498.269q1.515,0,3.038-.007l4.244,2.921,0.012,0.007,2.212,0.14a0.639,0.639,0,0,0,.479-0.171,0.6,0.6,0,0,0,.192-0.44v-0.046a0.619,0.619,0,0,0-.608-0.612c-0.67-.022-1.324-0.054-2-0.1l-3.953-2.827-0.357-.117-0.016,0c-2.384,0-4.807-.007-7.15-0.015s-4.767-.015-7.152-0.015l-0.367.116-4.161,3.015-2.446.114a0.647,0.647,0,0,0-.628.64,0.632,0.632,0,0,0,.2.46,0.666,0.666,0,0,0,.5.179l2.649-.155h0.014l4.455-3.115c1.585,0,2.608.008,3.466,0.018l-2.88,2.975-0.48.5,0.555,0.407a4.76,4.76,0,0,0,2.642.846h0.057a4.717,4.717,0,0,0,3.38-1.632l3.288,0.033,8.409,8.478a1.08,1.08,0,0,1-.162,1.308,1.283,1.283,0,0,1-.741.347,1.1,1.1,0,0,1-.624-0.1l-4.569-4.741-0.918.851,4.141,4.193a1.4,1.4,0,0,1,.4,1.2,1.01,1.01,0,0,1-.592.764,1.656,1.656,0,0,1-1.306-.215l-4.583-4.719-0.922.843,3.96,4.08a1.187,1.187,0,0,1,.127.676,1.147,1.147,0,0,1-1.146.963h-0.023a1.933,1.933,0,0,1-1.2-.675c-0.073-.069-0.144-0.134-0.21-0.192L384.68,511a2.456,2.456,0,0,0,.457-1.368,2.388,2.388,0,0,0-2.383-2.356,2.305,2.305,0,0,0-1.315.344,2.464,2.464,0,0,0-2.258-1.562H379.1a2.286,2.286,0,0,0-1.649.677l-0.658.645a2.432,2.432,0,0,0-2.305-1.707h-0.079a2.3,2.3,0,0,0-1.614.64c-0.305.3-.611,0.618-0.907,0.923-0.142.146-.284,0.292-0.426,0.436a2.452,2.452,0,0,0-.712,1.669v0.016h-0.134a0.608,0.608,0,1,0,0,1.216h0.476a2.548,2.548,0,0,0,2.009,1.115c-0.01.082-.017,0.167-0.02,0.265a2.371,2.371,0,0,0,2.391,2.374,1.982,1.982,0,0,0,.293-0.009c0,0.043,0,.086,0,0.129a2.385,2.385,0,0,0,2.383,2.351,2.2,2.2,0,0,0,.3-0.009,2.706,2.706,0,0,0,.735,1.545,2.556,2.556,0,0,0,1.658.667h0.045a2.418,2.418,0,0,0,1.649-.646l1.375-1.321,0.81,0.833a2.309,2.309,0,0,0,1.628.639h0.064a2.569,2.569,0,0,0,1.653-.665l0.047-.038,0.061-.059h0a2.186,2.186,0,0,0,.6-1.21l0.012-.077a2.323,2.323,0,0,0,.729.088,2.451,2.451,0,0,0,2.313-1.734,2.259,2.259,0,0,0,.575.166l0.089,0.013a2.578,2.578,0,0,0,2.1-.719,2.212,2.212,0,0,0,.654-1.513,2.313,2.313,0,0,0,.4-0.013,2.548,2.548,0,0,0,1.5-.7,2.22,2.22,0,0,0,.678-1.652v0h0.555a0.635,0.635,0,0,0,.451-0.184,0.6,0.6,0,0,0,.179-0.428,0.623,0.623,0,0,0-.627-0.612l-0.911,0-0.037-.038a2.881,2.881,0,0,0-.242-0.313h0l-6-6.152-2.568-2.522-0.014-.014h-4.47l-0.191.214a3.311,3.311,0,0,1-3.907,1.166l3.126-3.233C385.048,498.283,386.964,498.277,388.822,498.269Zm-7.92,19.508h-0.035a1.264,1.264,0,0,1-.818-0.327l-0.035-.033a1.041,1.041,0,0,1-.313-0.778,1.119,1.119,0,0,1,.112-0.459c0.435-.414.868-0.863,1.285-1.295,0.192-.2.382-0.395,0.571-0.588a1.049,1.049,0,0,1,.73-0.278h0.028l0.023,0a1.117,1.117,0,0,1,.786,1.935c-0.163.158-.334,0.329-0.507,0.5-0.385.385-.782,0.784-1.165,1.1A1.035,1.035,0,0,1,380.9,517.777Zm2.956-8.176a1.3,1.3,0,0,1-.373.856l-4.666,4.933,0,0a1.05,1.05,0,0,1-.6.179h-0.038a1.125,1.125,0,0,1-1.151-1.1,1.314,1.314,0,0,1,.369-0.864c0.573-.61,4.514-4.792,4.553-4.832a1.033,1.033,0,0,1,.725-0.283,1.268,1.268,0,0,1,.5.105A1.082,1.082,0,0,1,383.858,509.6Zm2.5,7.681a2.9,2.9,0,0,1-1.535-1.082c-0.056-.058-0.106-0.112-0.153-0.159a2.36,2.36,0,0,0,.187-0.853,2.156,2.156,0,0,0-1.9-2.341l0.878-.929,3.325,3.408a1.242,1.242,0,0,1,.366.844,1.147,1.147,0,0,1-1.154,1.112h-0.015ZM379.1,507.274h0.031a1.263,1.263,0,0,1,.817.327l0.035,0.033a1.035,1.035,0,0,1,.3.749,1.185,1.185,0,0,1-.087.423l-3.933,4.012a1.039,1.039,0,0,1-.729.281H375.5a1.149,1.149,0,0,1-1.161-1.123,1.184,1.184,0,0,1,.345-0.807,30.131,30.131,0,0,0,2.375-2.291c0.415-.43.844-0.874,1.28-1.3A1.04,1.04,0,0,1,379.1,507.274Zm-7.089,2.071a1.228,1.228,0,0,1,.365-0.836c0.146-.149.291-0.3,0.437-0.449,0.285-.294.581-0.6,0.874-0.891a1.045,1.045,0,0,1,.728-0.277h0.033a1.149,1.149,0,0,1,1.158,1.115,1.228,1.228,0,0,1-.365.836l-1.077,1.1-0.3.3a1.049,1.049,0,0,1-.657.222H373.17A1.15,1.15,0,0,1,372.011,509.345Z" transform="translate(-370 -497)"/>
</svg>
