<svg xmlns="http://www.w3.org/2000/svg" width="22" height="22" viewBox="0 0 22 22">
  <metadata><?xpacket begin="﻿" id="W5M0MpCehiHzreSzNTczkc9d"?>
<x:xmpmeta xmlns:x="adobe:ns:meta/" x:xmptk="Adobe XMP Core 5.6-c138 79.159824, 2016/09/14-01:09:01        ">
   <rdf:RDF xmlns:rdf="http://www.w3.org/1999/02/22-rdf-syntax-ns#">
      <rdf:Description rdf:about=""/>
   </rdf:RDF>
</x:xmpmeta>
<?xpacket end="w"?></metadata>
<defs>
    <style>
      .content-icon9 {
        fill: #292929;
        fill-rule: evenodd;
      }
    </style>
  </defs>
  <path class="content-icon9" d="M388,802.412a0.651,0.651,0,0,1-.5-0.233c-0.268-.324-6.62-7.992-6.62-12.062a7.119,7.119,0,0,1,14.237,0c0,4.07-6.352,11.738-6.62,12.062A0.651,0.651,0,0,1,388,802.412Zm0-18.118a5.824,5.824,0,0,0-5.824,5.823c0,2.741,3.831,8.118,5.824,10.622,1.994-2.5,5.825-7.881,5.825-10.622A5.824,5.824,0,0,0,388,784.294Zm0,9.059a3.236,3.236,0,1,1,3.236-3.236A3.235,3.235,0,0,1,388,793.353Zm0-5.177a1.942,1.942,0,1,0,1.942,1.941A1.941,1.941,0,0,0,388,788.176ZM398.352,805H377.643a0.648,0.648,0,0,1-.647-0.648,0.635,0.635,0,0,1,.068-0.287l2.588-5.177a0.648,0.648,0,0,1,.58-0.359h2.588a0.647,0.647,0,0,1,0,1.294h-2.187l-1.942,3.883H397.3l-1.941-3.883h-2.187a0.647,0.647,0,1,1,0-1.294h2.588a0.646,0.646,0,0,1,.579.359l2.589,5.177a0.647,0.647,0,0,1-.292.867A0.635,0.635,0,0,1,398.352,805Z" transform="translate(-377 -783)"/>
</svg>
