<svg xmlns="http://www.w3.org/2000/svg" width="24" height="22" viewBox="0 0 24 22">
  <metadata><?xpacket begin="﻿" id="W5M0MpCehiHzreSzNTczkc9d"?>
<x:xmpmeta xmlns:x="adobe:ns:meta/" x:xmptk="Adobe XMP Core 5.6-c138 79.159824, 2016/09/14-01:09:01        ">
   <rdf:RDF xmlns:rdf="http://www.w3.org/1999/02/22-rdf-syntax-ns#">
      <rdf:Description rdf:about=""/>
   </rdf:RDF>
</x:xmpmeta>
<?xpacket end="w"?></metadata>
<defs>
    <style>
      .content-icon2 {
        fill: #292929;
        fill-rule: evenodd;
      }
    </style>
  </defs>
  <path class="content-icon2" d="M381.044,446a3.584,3.584,0,0,0-3.663,3.45v1.3h-4A2.366,2.366,0,0,0,371,453.068v12.617A2.358,2.358,0,0,0,373.385,468h19.233A2.358,2.358,0,0,0,395,465.685V453.068a2.365,2.365,0,0,0-2.381-2.322h-4v-1.3A3.584,3.584,0,0,0,384.95,446h-3.906Zm0.009,1.43h3.906a2.148,2.148,0,0,1,2.2,2.02v1.3h-8.305v-1.3a2.148,2.148,0,0,1,2.2-2.02h0Zm-7.668,4.737h19.233a0.9,0.9,0,0,1,.917.9v5.089h-2.472v-1.195a0.739,0.739,0,0,0-.727-0.706h-2.451a0.74,0.74,0,0,0-.736.706v1.195h-8.3v-1.195a0.74,0.74,0,0,0-.736-0.706h-2.451a0.739,0.739,0,0,0-.727.706v1.195h-2.473v-5.089a0.9,0.9,0,0,1,.919-0.9h0Zm3.017,5.519h0.979v2.373H376.4v-2.373h0Zm12.219,0H389.6v2.373h-0.979v-2.373h0Zm-16.154,1.893h2.472v1.195a0.752,0.752,0,0,0,.728.715h2.45a0.755,0.755,0,0,0,.737-0.715v-1.195h8.3v1.195a0.753,0.753,0,0,0,.735.715h2.451a0.753,0.753,0,0,0,.728-0.715v-1.195h2.472v6.106a0.89,0.89,0,0,1-.918.892H373.385a0.89,0.89,0,0,1-.918-0.892v-6.106h0Z" transform="translate(-371 -446)"/>
</svg>
