<svg xmlns="http://www.w3.org/2000/svg" width="33" height="20" viewBox="0 0 33 20">
  <metadata><?xpacket begin="﻿" id="W5M0MpCehiHzreSzNTczkc9d"?>
<x:xmpmeta xmlns:x="adobe:ns:meta/" x:xmptk="Adobe XMP Core 5.6-c138 79.159824, 2016/09/14-01:09:01        ">
   <rdf:RDF xmlns:rdf="http://www.w3.org/1999/02/22-rdf-syntax-ns#">
      <rdf:Description rdf:about=""/>
   </rdf:RDF>
</x:xmpmeta>
<?xpacket end="w"?></metadata>
<defs>
    <style>
      .content-icon5 {
        fill: #292929;
        fill-rule: evenodd;
      }
    </style>
  </defs>
  <path class="content-icon5" d="M401,600.383c0-.02-0.007-0.04-0.017-0.081a0.467,0.467,0,0,0-.018-0.053l-0.919-3.483a0.735,0.735,0,0,0-.684-0.451h-8.871v-2.154a0.6,0.6,0,0,0-.057-0.267l-0.906-3.444a0.73,0.73,0,0,0-.683-0.452h-8.686a0.733,0.733,0,0,0-.688.467l-0.914,3.461-0.027.089c0,0.018-.007.035-0.012,0.072s0,0.048,0,.076v4.475h-8.872a0.736,0.736,0,0,0-.688.467l-0.912,3.459a0.677,0.677,0,0,0-.025.079,0.619,0.619,0,0,0-.015.082,0.643,0.643,0,0,0,0,.079V609.3a0.715,0.715,0,0,0,.73.7h31.549a0.715,0.715,0,0,0,.73-0.7v-8.82A0.8,0.8,0,0,0,401,600.383Zm-1.453.792V608.6h-9.056v-7.426h9.056Zm-9.056-1.393v-2.074h8.346l0.421,2.074h-8.767Zm-10.227-6.318,0.42-2.074h7.637l0.421,2.074H380.26Zm8.767,1.393V608.6H379.97V594.857h9.057ZM378.51,603.5v5.1h-9.057v-5.1h9.057Zm0-3.467v2.074h-8.768l0.421-2.074h8.347Z" transform="translate(-368 -590)"/>
</svg>
