<svg xmlns="http://www.w3.org/2000/svg" width="29" height="26" viewBox="0 0 29 26">
  <metadata><?xpacket begin="﻿" id="W5M0MpCehiHzreSzNTczkc9d"?>
<x:xmpmeta xmlns:x="adobe:ns:meta/" x:xmptk="Adobe XMP Core 5.6-c138 79.159824, 2016/09/14-01:09:01        ">
   <rdf:RDF xmlns:rdf="http://www.w3.org/1999/02/22-rdf-syntax-ns#">
      <rdf:Description rdf:about=""/>
   </rdf:RDF>
</x:xmpmeta>
<?xpacket end="w"?></metadata>
<defs>
    <style>
      .content-icon8 {
        fill: #292929;
        fill-rule: evenodd;
      }
    </style>
  </defs>
  <path class="content-icon8" d="M398.066,731H387.138a3.948,3.948,0,0,0-3.938,3.959v1.5a1.364,1.364,0,0,0-1.075.959,0.713,0.713,0,0,0-.022.1l-0.18,1.309a3.856,3.856,0,0,1-.33,1.106l-1.763,3.73a1.972,1.972,0,0,1-1.289,1.131,1.343,1.343,0,0,0-1.358-1.278H374.37a1.346,1.346,0,0,0-1.37,1.321v10.834A1.346,1.346,0,0,0,374.359,757h2.813a1.346,1.346,0,0,0,1.361-1.327V755.5l0.588,0.354a4.659,4.659,0,0,0,2.408.673h4.7a3.2,3.2,0,0,0,3.055-2.22l2.051-6.264a3.213,3.213,0,0,0-2.656-4.2c-1.35-.167-2.582-0.269-3.417-0.283a4.52,4.52,0,0,1,.137-1.414,3.92,3.92,0,0,0,1.739.41h3.7a6.486,6.486,0,0,0,3.136,3.227,1.231,1.231,0,0,0,1.659-.55,1.25,1.25,0,0,0,.063-0.969,3.588,3.588,0,0,1-.138-1.7h2.506a3.949,3.949,0,0,0,3.938-3.96v-3.645a3.948,3.948,0,0,0-3.93-3.967h-0.008Zm-20.923,24.584h-2.737V744.933h2.737v10.651Zm11.362-10.323a1.805,1.805,0,0,1,1.565,2.014,1.85,1.85,0,0,1-.077.345l-2.048,6.255a1.8,1.8,0,0,1-1.707,1.242h-4.7a3.262,3.262,0,0,1-1.688-.469l-1.311-.792v-7.613H378.6a3.383,3.383,0,0,0,2.512-1.98l1.735-3.722a5.235,5.235,0,0,0,.45-1.519l0.161-1.156a1.4,1.4,0,0,1,.908.608,2.713,2.713,0,0,1,0,2.191,6.745,6.745,0,0,0-.436,3.38,1.192,1.192,0,0,0,1.168.933h0A31.148,31.148,0,0,1,388.505,745.261ZM400.6,738.6a2.539,2.539,0,0,1-2.532,2.546h-3.075a0.7,0.7,0,0,0-.677.517,5.275,5.275,0,0,0-.068,2.661,4.839,4.839,0,0,1-2.25-2.681,0.706,0.706,0,0,0-.673-0.5h-4.185a2.524,2.524,0,0,1-1.348-.39,3.735,3.735,0,0,0-.23-3.017,2.723,2.723,0,0,0-.962-0.928v-1.841a2.538,2.538,0,0,1,2.531-2.545h10.937a2.539,2.539,0,0,1,2.532,2.545V738.6Zm-11.376-2.036H387.97a0.707,0.707,0,0,0,0,1.414h1.252A0.707,0.707,0,0,0,389.222,736.559Zm4,0H391.97a0.707,0.707,0,0,0,0,1.414h1.252A0.707,0.707,0,0,0,393.222,736.559Zm4,0H395.97a0.707,0.707,0,0,0,0,1.414h1.252A0.707,0.707,0,0,0,397.222,736.559Z" transform="translate(-373 -731)"/>
</svg>
