<svg xmlns="http://www.w3.org/2000/svg" width="17" height="24" viewBox="0 0 17 24">
  <metadata><?xpacket begin="﻿" id="W5M0MpCehiHzreSzNTczkc9d"?>
<x:xmpmeta xmlns:x="adobe:ns:meta/" x:xmptk="Adobe XMP Core 5.6-c138 79.159824, 2016/09/14-01:09:01        ">
   <rdf:RDF xmlns:rdf="http://www.w3.org/1999/02/22-rdf-syntax-ns#">
      <rdf:Description rdf:about=""/>
   </rdf:RDF>
</x:xmpmeta>
<?xpacket end="w"?></metadata>
<defs>
    <style>
      .content-icon4 {
        fill: #292929;
        fill-rule: evenodd;
      }
    </style>
  </defs>
  <path class="content-icon4" d="M388.407,554.4c3.411-.992,4.536-6.916,4.584-7.177a0.688,0.688,0,0,0-.444-0.767l-3.411-1.262c-0.384-1.542-1.52-3.2-4.636-3.2s-4.252,1.655-4.636,3.2l-3.41,1.262a0.688,0.688,0,0,0-.444.767c0.048,0.261,1.172,6.185,4.584,7.176,0.707,1.59,1.828,3.042,3.2,3.423v2.06h-2.689a0.7,0.7,0,0,0-.7.689v1.679h-1.529a0.7,0.7,0,0,0-.7.69v2.368a0.7,0.7,0,0,0,.7.689h11.247a0.7,0.7,0,0,0,.7-0.689v-2.368a0.7,0.7,0,0,0-.7-0.69H388.6v-1.679a0.7,0.7,0,0,0-.7-0.689H385.2v-2.06C386.579,557.443,387.7,555.991,388.407,554.4Zm1.014,10.219h-9.842v-0.989h9.842v0.989Zm-2.232-2.368h-5.378v-0.99h5.379v0.99h0Zm1.861-9.781a6.858,6.858,0,0,0,.182-1.462v-4.3l2.256,0.835C391.149,548.958,390.343,551.312,389.05,552.472Zm-4.55-9.094c1.633,0,2.64.525,3.108,1.64h-6.216C381.86,543.9,382.867,543.378,384.5,543.378Zm-6.987,4.162,2.256-.835v4.3a6.861,6.861,0,0,0,.181,1.463C378.657,551.312,377.851,548.958,377.513,547.54Zm3.661,3.47V546.4h6.653v4.612c0,1.984-1.677,5.534-3.327,5.534S381.174,552.994,381.174,551.01Z" transform="translate(-376 -542)"/>
</svg>
