<svg xmlns="http://www.w3.org/2000/svg" width="23" height="24" viewBox="0 0 23 24">
  <metadata><?xpacket begin="﻿" id="W5M0MpCehiHzreSzNTczkc9d"?>
<x:xmpmeta xmlns:x="adobe:ns:meta/" x:xmptk="Adobe XMP Core 5.6-c138 79.159824, 2016/09/14-01:09:01        ">
   <rdf:RDF xmlns:rdf="http://www.w3.org/1999/02/22-rdf-syntax-ns#">
      <rdf:Description rdf:about=""/>
   </rdf:RDF>
</x:xmpmeta>
<?xpacket end="w"?></metadata>
<defs>
    <style>
      .content-icon1 {
        fill: #292929;
        fill-rule: evenodd;
      }
    </style>
  </defs>
  <path class="content-icon1" d="M390.064,400H374.933A3.99,3.99,0,0,0,371,404.045v19.146a0.8,0.8,0,0,0,.787.809,0.778,0.778,0,0,0,.611-0.3l3.147-3.988h14.52A3.99,3.99,0,0,0,394,415.667V404.045A3.99,3.99,0,0,0,390.064,400Zm2.36,15.667a2.394,2.394,0,0,1-2.36,2.427H375.418a1.3,1.3,0,0,0-1.018.5l-1.835,2.316V404.045a2.394,2.394,0,0,1,2.36-2.427h15.131a2.4,2.4,0,0,1,2.36,2.427ZM382.5,408a0.8,0.8,0,0,0-.786.809v5.474a0.787,0.787,0,1,0,1.573,0V408.81A0.8,0.8,0,0,0,382.5,408Zm0-3.236a0.8,0.8,0,0,0-.786.809v0.62a0.787,0.787,0,1,0,1.573,0v-0.62A0.8,0.8,0,0,0,382.5,404.765Z" transform="translate(-371 -400)"/>
</svg>
