<svg xmlns="http://www.w3.org/2000/svg" width="27" height="23" viewBox="0 0 27 23">
  <metadata><?xpacket begin="﻿" id="W5M0MpCehiHzreSzNTczkc9d"?>
<x:xmpmeta xmlns:x="adobe:ns:meta/" x:xmptk="Adobe XMP Core 5.6-c138 79.159824, 2016/09/14-01:09:01        ">
   <rdf:RDF xmlns:rdf="http://www.w3.org/1999/02/22-rdf-syntax-ns#">
      <rdf:Description rdf:about=""/>
   </rdf:RDF>
</x:xmpmeta>
<?xpacket end="w"?></metadata>
<defs>
    <style>
      .content-icon6 {
        fill: #292929;
        fill-rule: evenodd;
      }
    </style>
  </defs>
  <path class="content-icon6" d="M385.471,637a0.624,0.624,0,0,0-.3.1l-11.352,6.943a0.6,0.6,0,0,0-.288.52v1.523a0.61,0.61,0,0,0,.614.605h1.841v8.476h-1.841a0.561,0.561,0,0,0-.058,0,0.609,0.609,0,0,0-.556.6v0.908h-0.92a0.61,0.61,0,0,0-.614.606v2.118a0.61,0.61,0,0,0,.614.606h25.772a0.61,0.61,0,0,0,.614-0.606v-2.118a0.61,0.61,0,0,0-.614-0.606h-0.92v-0.908a0.61,0.61,0,0,0-.614-0.6h-1.841v-8.476h1.841a0.61,0.61,0,0,0,.614-0.605v-1.523a0.605,0.605,0,0,0-.288-0.52l-11.352-6.943A0.619,0.619,0,0,0,385.471,637Zm0.029,1.315,10.739,6.574v0.587H374.761v-0.587Zm0,1.409a2.119,2.119,0,1,0,2.148,2.119A2.143,2.143,0,0,0,385.5,639.719Zm0,1.211a0.908,0.908,0,1,1-.92.908A0.9,0.9,0,0,1,385.5,640.93Zm-8.284,5.751h1.227v8.476h-1.227v-8.476Zm2.454,0h3.989v8.476H379.67v-8.476Zm5.216,0h1.228v8.476h-1.228v-8.476Zm2.455,0h3.988v8.476h-3.988v-8.476Zm5.216,0h1.227v8.476h-1.227v-8.476Zm-17.8,9.687h21.478v0.908a0.609,0.609,0,0,0,.613.605h0.921v0.908H373.227v-0.908h0.921a0.609,0.609,0,0,0,.613-0.605v-0.908Z" transform="translate(-372 -637)"/>
</svg>
