<svg xmlns="http://www.w3.org/2000/svg" width="201.969" height="313" viewBox="0 0 201.969 313">
  <metadata><?xpacket begin="﻿" id="W5M0MpCehiHzreSzNTczkc9d"?>
<x:xmpmeta xmlns:x="adobe:ns:meta/" x:xmptk="Adobe XMP Core 5.6-c138 79.159824, 2016/09/14-01:09:01        ">
   <rdf:RDF xmlns:rdf="http://www.w3.org/1999/02/22-rdf-syntax-ns#">
      <rdf:Description rdf:about=""/>
   </rdf:RDF>
</x:xmpmeta>
<?xpacket end="w"?></metadata>
<defs>
    <style>
      .download-cup-svg {
        fill: #e7c746;
        fill-rule: evenodd;
        opacity: 0.8;
      }
    </style>
  </defs>
  <path class="download-cup-svg" d="M544.4,1721.3c40.525-11.94,53.887-83.26,54.458-86.4a8.288,8.288,0,0,0-5.272-9.23l-40.525-15.19c-4.558-18.57-18.054-38.49-55.073-38.49s-50.522,19.92-55.076,38.48l-40.522,15.19a8.306,8.306,0,0,0-5.272,9.24c0.571,3.14,13.927,74.46,54.458,86.39,8.4,19.14,21.724,36.62,38.065,41.21v48.87H457.693a8.325,8.325,0,0,0-8.347,8.3v20.21H431.175a8.328,8.328,0,0,0-8.347,8.31v28.5a8.319,8.319,0,0,0,8.347,8.3H564.8a8.319,8.319,0,0,0,8.347-8.3v-28.5a8.328,8.328,0,0,0-8.347-8.31H546.633v-20.21a8.325,8.325,0,0,0-8.347-8.3H506.335V1762.5C522.68,1757.92,536,1740.43,544.4,1721.3Zm12.053,147.1H439.523v-11.91h116.93v11.91Zm-26.518-28.51H466.041v-11.91h63.9v11.91h0Zm22.108-141.82a83.352,83.352,0,0,0,2.156-17.6v-51.83l26.8,10.05C576.978,1655.76,567.405,1684.1,552.043,1698.07Zm-54.055-109.48c19.4,0,31.366,6.33,36.922,19.75H461.066C466.622,1594.92,478.585,1588.59,497.988,1588.59Zm-83.017,50.1,26.8-10.05v51.83a83.719,83.719,0,0,0,2.157,17.61C428.568,1684.1,419,1655.77,414.971,1638.69Zm43.5,41.78v-55.53h79.04v55.53c0,23.88-19.92,66.62-39.52,66.62S458.468,1704.35,458.468,1680.47Z" transform="translate(-397 -1572)"/>
</svg>
