<svg xmlns="http://www.w3.org/2000/svg" width="122.062" height="189" viewBox="0 0 122.062 189">
  <metadata><?xpacket begin="﻿" id="W5M0MpCehiHzreSzNTczkc9d"?>
<x:xmpmeta xmlns:x="adobe:ns:meta/" x:xmptk="Adobe XMP Core 5.6-c138 79.159824, 2016/09/14-01:09:01        ">
   <rdf:RDF xmlns:rdf="http://www.w3.org/1999/02/22-rdf-syntax-ns#">
      <rdf:Description rdf:about=""/>
   </rdf:RDF>
</x:xmpmeta>
<?xpacket end="w"?></metadata>
<defs>
    <style>
      .cup-articles {
        fill: #e7c746;
        fill-rule: evenodd;
        opacity: 0.8;
      }
    </style>
  </defs>
  <path class="cup-articles" d="M528.037,1152.15c24.48-7.21,32.551-50.27,32.9-52.17a5,5,0,0,0-3.185-5.57l-24.479-9.18c-2.753-11.2-10.9-23.24-33.267-23.24s-30.518,12.04-33.269,23.24l-24.477,9.17a5.018,5.018,0,0,0-3.185,5.58c0.345,1.9,8.413,44.96,32.9,52.17,5.077,11.55,13.122,22.11,22.993,24.88v29.51h-19.3a5.024,5.024,0,0,0-5.042,5.01v12.21H459.644a5.024,5.024,0,0,0-5.043,5.01v17.21a5.033,5.033,0,0,0,5.043,5.02h80.717a5.032,5.032,0,0,0,5.042-5.02v-17.21a5.024,5.024,0,0,0-5.042-5.01H529.387v-12.21a5.024,5.024,0,0,0-5.043-5.01h-19.3v-29.51C514.917,1174.26,522.963,1163.71,528.037,1152.15Zm7.281,88.82H464.686v-7.19h70.632v7.19ZM519.3,1223.76H480.7v-7.19h38.6v7.19h0Zm13.354-85.63a50.378,50.378,0,0,0,1.3-10.63v-31.3l16.19,6.07C547.716,1112.58,541.934,1129.69,532.654,1138.13ZM500,1072.02c11.72,0,18.947,3.82,22.3,11.92H477.7C481.055,1075.84,488.282,1072.02,500,1072.02Zm-50.146,30.25,16.189-6.07v31.3a50.509,50.509,0,0,0,1.3,10.63C458.069,1129.69,452.286,1112.58,449.856,1102.27Zm26.274,25.23v-33.53h47.744v33.53c0,14.42-12.033,40.23-23.872,40.23S476.13,1141.92,476.13,1127.5Z" transform="translate(-438.969 -1062)"/>
</svg>
