<svg xmlns="http://www.w3.org/2000/svg" width="19" height="19" viewBox="0 0 19 19">
  <metadata><?xpacket begin="﻿" id="W5M0MpCehiHzreSzNTczkc9d"?>
<x:xmpmeta xmlns:x="adobe:ns:meta/" x:xmptk="Adobe XMP Core 5.6-c138 79.159824, 2016/09/14-01:09:01        ">
   <rdf:RDF xmlns:rdf="http://www.w3.org/1999/02/22-rdf-syntax-ns#">
      <rdf:Description rdf:about=""/>
   </rdf:RDF>
</x:xmpmeta>
<?xpacket end="w"?></metadata>
<defs>
    <style>
      .description-icon {
        fill: #2d2d2d;
        fill-rule: evenodd;
      }
    </style>
  </defs>
  <path class="description-icon" d="M396.505,2261.39a1,1,0,1,0-.992-0.99A1,1,0,0,0,396.505,2261.39Zm0,6.24a1,1,0,0,0,.993-0.99v-3.97a0.993,0.993,0,1,0-1.985,0v3.97A1,1,0,0,0,396.505,2267.63ZM404.16,2256H388.851a1.85,1.85,0,0,0-1.847,1.85v10.77a1.842,1.842,0,0,0,1.847,1.84h3.258v3.55a0.985,0.985,0,0,0,.563.89,0.921,0.921,0,0,0,.43.1,0.989,0.989,0,0,0,.62-0.21l5.4-4.33h5.039a1.842,1.842,0,0,0,1.846-1.84v-10.77A1.85,1.85,0,0,0,404.16,2256ZM393.1,2268.48H388.99v-10.49h15.031v10.49h-5.247a1,1,0,0,0-.62.22l-4.06,3.24v-2.47A0.989,0.989,0,0,0,393.1,2268.48Z" transform="translate(-387 -2256)"/>
</svg>
