<svg xmlns="http://www.w3.org/2000/svg" width="16" height="26" viewBox="0 0 16 26">
  <metadata><?xpacket begin="﻿" id="W5M0MpCehiHzreSzNTczkc9d"?>
<x:xmpmeta xmlns:x="adobe:ns:meta/" x:xmptk="Adobe XMP Core 5.6-c138 79.159824, 2016/09/14-01:09:01        ">
   <rdf:RDF xmlns:rdf="http://www.w3.org/1999/02/22-rdf-syntax-ns#">
      <rdf:Description rdf:about=""/>
   </rdf:RDF>
</x:xmpmeta>
<?xpacket end="w"?></metadata>
<defs>
    <style>
      .download-icon {
        fill: #2d2d2d;
        fill-rule: evenodd;
      }
    </style>
  </defs>
  <path class="download-icon" d="M402.285,1757.69a1.018,1.018,0,0,0,1.465-.01l5.535-5.78a1.054,1.054,0,1,0-1.471-1.51l-3.553,3.65c-0.121.12-.221,0.08-0.221-0.1v-12.02a1.079,1.079,0,0,0-.835-1.08,1.049,1.049,0,0,0-1.246,1.04v11.96c0,0.26-.1.32-0.265,0.14l-3.508-3.59a1.054,1.054,0,1,0-1.471,1.51Zm4.889-9.31h1.044a2.812,2.812,0,0,0,2.782-2.85v-10.68a2.82,2.82,0,0,0-2.785-2.85H397.784a2.82,2.82,0,0,0-2.784,2.85v10.68a2.812,2.812,0,0,0,2.782,2.85h1.044a1.065,1.065,0,0,0,0-2.13h-1.044a0.707,0.707,0,0,1-.695-0.72v-10.68a0.7,0.7,0,0,1,.7-0.71h10.431a0.7,0.7,0,0,1,.7.71v10.68a0.706,0.706,0,0,1-.695.72h-1.044A1.065,1.065,0,0,0,407.174,1748.38Z" transform="translate(-395 -1732)"/>
</svg>
