<svg xmlns="http://www.w3.org/2000/svg" width="26" height="26" viewBox="0 0 26 26">
  <metadata><?xpacket begin="﻿" id="W5M0MpCehiHzreSzNTczkc9d"?>
<x:xmpmeta xmlns:x="adobe:ns:meta/" x:xmptk="Adobe XMP Core 5.6-c138 79.159824, 2016/09/14-01:09:01        ">
   <rdf:RDF xmlns:rdf="http://www.w3.org/1999/02/22-rdf-syntax-ns#">
      <rdf:Description rdf:about=""/>
   </rdf:RDF>
</x:xmpmeta>
<?xpacket end="w"?></metadata>
  <path fil="#303030" fill-rule="evenodd" d="M1046,604a13,13,0,0,0-13-13,13.308,13.308,0,0,0-1.33.066,12.948,12.948,0,0,0-5.94,2.154,13.232,13.232,0,0,0-2.35,2.038c-0.14.155-.28,0.312-0.41,0.472a11.1,11.1,0,0,0-.75,1c-0.23.346-.45,0.7-0.65,1.072a13.413,13.413,0,0,0-.99,2.331c-0.12.406-.23,0.821-0.32,1.245a13.331,13.331,0,0,0,0,5.24c0.09,0.424.2,0.839,0.32,1.246a13.479,13.479,0,0,0,.99,2.331c0.2,0.368.42,0.726,0.65,1.071a11.118,11.118,0,0,0,.75,1c0.13,0.16.27,0.317,0.41,0.471a13.2,13.2,0,0,0,2.35,2.039,12.885,12.885,0,0,0,5.94,2.153A13.308,13.308,0,0,0,1033,617a12.936,12.936,0,0,0,8.35-3.042,1.206,1.206,0,0,0,.25-0.211A12.958,12.958,0,0,0,1046,604Zm-23.69,0a10.69,10.69,0,1,1,18.98,6.742,5.711,5.711,0,0,0-5.48-4.142h-5.3a5.713,5.713,0,0,0-5.49,4.173l-0.07.252A10.658,10.658,0,0,1,1022.31,604Zm4.56,8.752,0.38-1.361a3.383,3.383,0,0,1,3.26-2.48h5.3a3.383,3.383,0,0,1,3.26,2.479l0.32,1.17A10.665,10.665,0,0,1,1026.87,612.75Zm6.11-7.018c0.16,0,.33-0.009.49-0.025a4.738,4.738,0,0,0,1.8-.557,4.473,4.473,0,0,0,.4-0.242,4.813,4.813,0,0,0,0-7.992c-0.13-.087-0.26-0.167-0.4-0.242a4.756,4.756,0,0,0-1.8-.557c-0.16-.016-0.33-0.024-0.49-0.024A4.82,4.82,0,1,0,1032.98,605.732Zm0-7.328a2.509,2.509,0,1,1-2.51,2.508A2.514,2.514,0,0,1,1032.98,598.4Z" transform="translate(-1020 -591)"/>
</svg>
