<svg xmlns="http://www.w3.org/2000/svg" width="30.03" height="19" viewBox="0 0 30.03 19">
  <metadata><?xpacket begin="﻿" id="W5M0MpCehiHzreSzNTczkc9d"?>
<x:xmpmeta xmlns:x="adobe:ns:meta/" x:xmptk="Adobe XMP Core 5.6-c138 79.159824, 2016/09/14-01:09:01        ">
   <rdf:RDF xmlns:rdf="http://www.w3.org/1999/02/22-rdf-syntax-ns#">
      <rdf:Description rdf:about=""/>
   </rdf:RDF>
</x:xmpmeta>
<?xpacket end="w"?></metadata>
  <path fill="#b8b8b8" fill-rule="evenodd" d="M1219.23,524.275a4.784,4.784,0,1,1,4.67-4.783A4.727,4.727,0,0,1,1219.23,524.275ZM1219,529a16.8,16.8,0,0,1-4.54-.623,16.985,16.985,0,0,1-4.09-1.758,17.441,17.441,0,0,1-6.14-6.255,1.746,1.746,0,0,1,0-1.741,17.42,17.42,0,0,1,6.14-6.255,16.815,16.815,0,0,1,13.17-1.759,16.751,16.751,0,0,1,4.08,1.759,17.448,17.448,0,0,1,3.47,2.725,18.121,18.121,0,0,1,2.68,3.53,1.746,1.746,0,0,1,0,1.741,17.815,17.815,0,0,1-2.68,3.529,17.417,17.417,0,0,1-3.47,2.726A16.735,16.735,0,0,1,1219,529Zm-11.36-9.507a14.114,14.114,0,0,0,4.41,4.174,13.546,13.546,0,0,0,10.61,1.415,13.419,13.419,0,0,0,3.28-1.415,13.957,13.957,0,0,0,2.8-2.2,14.741,14.741,0,0,0,1.61-1.976,14.741,14.741,0,0,0-1.61-1.976,13.993,13.993,0,0,0-2.8-2.2,13.5,13.5,0,0,0-3.28-1.415,13.546,13.546,0,0,0-10.61,1.415,14.22,14.22,0,0,0-2.79,2.2A14.076,14.076,0,0,0,1207.64,519.492Z" transform="translate(-1204 -510)"/>
</svg>
