<svg xmlns="http://www.w3.org/2000/svg" width="47" height="29" viewBox="0 0 47 29">
<defs>
    <style>
      .help2 {
        fill: #404040;
        fill-rule: evenodd;
      }
    </style>
  </defs>
  <path class="help2" d="M562.3,573.985h0a0.99,0.99,0,0,0,.993.987h20.238v10.991a1.07,1.07,0,0,0,1.073,1.066h13.947l2.483,3.155v5.375h-3.823a5.522,5.522,0,0,0-10.864,0h-9.827a5.522,5.522,0,0,0-10.864,0h-2.363a0.99,0.99,0,0,0-.993.987h0a0.99,0.99,0,0,0,.993.988h2.348a5.527,5.527,0,0,0,10.854,0h9.842a5.527,5.527,0,0,0,10.854,0h4.742a1.069,1.069,0,0,0,1.072-1.067V589.9a1.094,1.094,0,0,0-.232-0.673l-2.856-3.653h0l-4.5-9.431a1.106,1.106,0,0,0-1-.627h-8.9v-1.452A1.07,1.07,0,0,0,584.447,573l-21.152,0A0.99,0.99,0,0,0,562.3,573.985Zm8.759,26.057a3.521,3.521,0,1,1,3.54-3.52v0A3.53,3.53,0,0,1,571.061,600.042Zm20.7,0a3.521,3.521,0,1,1,3.54-3.52v0a3.531,3.531,0,0,1-3.535,3.515h0Zm2.1-22.547,3.625,7.564H585.519V577.5h8.342Zm-36.872,7.589h11.917a0.99,0.99,0,0,1,.993.987h0a0.991,0.991,0,0,1-.993.988H556.989a0.99,0.99,0,0,1-.993-0.988h0A0.99,0.99,0,0,1,556.989,585.084Zm2.483-5.925h11.916a0.99,0.99,0,0,1,.993.988h0a0.99,0.99,0,0,1-.993.987H559.472a0.991,0.991,0,0,1-.994-0.987h0A0.991,0.991,0,0,1,559.472,579.159Z" transform="translate(-556 -573)"/>
</svg>
