<svg xmlns="http://www.w3.org/2000/svg" width="35" height="48" viewBox="0 0 35 48">
<defs>
    <style>
      .help4 {
        fill: #404040;
        fill-rule: evenodd;
      }
    </style>
  </defs>
  <path class="help4" d="M594.771,850.564H591.2V848.3a11.707,11.707,0,0,0-23.4,0v2.261h-3.572A2.252,2.252,0,0,0,562,852.825v29.913A2.251,2.251,0,0,0,564.228,885h30.543A2.251,2.251,0,0,0,597,882.738V852.825A2.252,2.252,0,0,0,594.771,850.564ZM570.028,848.3a9.482,9.482,0,0,1,18.943,0v2.261H570.028V848.3Zm24.743,34.435H564.228V852.825h30.543v29.913Zm-21.957-17.217A4.522,4.522,0,1,1,577.271,861,4.5,4.5,0,0,1,572.814,865.521Zm0-6.783A2.261,2.261,0,1,0,575.043,861,2.251,2.251,0,0,0,572.814,858.738Zm13.372,20.348a4.522,4.522,0,1,1,4.457-4.522A4.5,4.5,0,0,1,586.186,879.086Zm0-6.782a2.261,2.261,0,1,0,2.228,2.26A2.251,2.251,0,0,0,586.186,872.3Zm-16.158,6.216a1.09,1.09,0,0,1-.78-0.339,1.1,1.1,0,0,1,0-1.582l18.943-19.217a1.065,1.065,0,0,1,1.56,0,1.1,1.1,0,0,1,0,1.582l-18.943,19.217A1.086,1.086,0,0,1,570.028,878.52Z" transform="translate(-562 -837)"/>
</svg>
