<svg xmlns="http://www.w3.org/2000/svg" width="49" height="46" viewBox="0 0 49 46">
<defs>
    <style>
      .help1 {
        fill: #404040;
        fill-rule: evenodd;
      }
    </style>
  </defs>
  <path class="help1" d="M598.989,432.513h-14a0.992,0.992,0,0,0-1,.985h0a0.991,0.991,0,0,0,1,.984h8.03a7.357,7.357,0,0,0,.738,2.477,10.884,10.884,0,0,0,2.133,2.914,11.07,11.07,0,0,0,2.8,2.024,7.982,7.982,0,0,0,2.312.763v8.329a7.943,7.943,0,0,0-2.311.762,11.062,11.062,0,0,0-2.8,2.025,10.864,10.864,0,0,0-2.133,2.913,7.38,7.38,0,0,0-.738,2.477h-24.1a7.38,7.38,0,0,0-.738-2.477,10.884,10.884,0,0,0-2.133-2.914,11.086,11.086,0,0,0-2.8-2.025,8.037,8.037,0,0,0-2.311-.763V442.66a7.973,7.973,0,0,0,2.311-.762,11.086,11.086,0,0,0,2.8-2.025,10.864,10.864,0,0,0,2.133-2.913,7.357,7.357,0,0,0,.738-2.477H576.9a0.992,0.992,0,0,0,1-.984h0a0.992,0.992,0,0,0-1-.985H562.938a3.983,3.983,0,0,0-4,3.946v20.731a3.983,3.983,0,0,0,4,3.946h36.051a3.983,3.983,0,0,0,4-3.946V436.46A3.984,3.984,0,0,0,598.989,432.513Zm0.6,7.629a9.082,9.082,0,0,1-2.289-1.662,8.887,8.887,0,0,1-1.747-2.378,5.662,5.662,0,0,1-.53-1.619h3.968a2.011,2.011,0,0,1,1.416.581,1.956,1.956,0,0,1,.59,1.4v4.194A6.264,6.264,0,0,1,599.587,440.142Zm-38.064-5.078a2.009,2.009,0,0,1,1.415-.582h3.968a5.647,5.647,0,0,1-.529,1.619,8.9,8.9,0,0,1-1.748,2.379,9.11,9.11,0,0,1-2.288,1.662,6.326,6.326,0,0,1-1.408.511V436.46A1.952,1.952,0,0,1,561.523,435.064Zm0,23.521a1.948,1.948,0,0,1-.59-1.395V453a6.282,6.282,0,0,1,1.408.512,9.1,9.1,0,0,1,2.288,1.661,8.921,8.921,0,0,1,1.748,2.38,5.647,5.647,0,0,1,.529,1.619h-3.968A2.01,2.01,0,0,1,561.523,458.585Zm38.882,0a2.007,2.007,0,0,1-1.416.582h-3.968a5.662,5.662,0,0,1,.53-1.619,8.875,8.875,0,0,1,1.747-2.379,9.084,9.084,0,0,1,2.289-1.661A6.264,6.264,0,0,1,601,453v4.194A1.952,1.952,0,0,1,600.405,458.585Zm-25.492-11.708a6.052,6.052,0,1,0,6.051-5.965A6.009,6.009,0,0,0,574.913,446.877Zm10.1,0a3.948,3.948,0,0,1-1.187,2.825,4.093,4.093,0,0,1-5.732,0,3.954,3.954,0,0,1,0-5.65,4.094,4.094,0,0,1,5.732,0A3.946,3.946,0,0,1,585.017,446.877ZM577.8,425.9h0l2.164-2.133v14.521a1,1,0,0,0,2,0V423.764l2.163,2.133a1.011,1.011,0,0,0,1.413,0,0.974,0.974,0,0,0,0-1.392l-4.575-4.511-4.575,4.511a0.974,0.974,0,0,0,0,1.392A1.009,1.009,0,0,0,577.8,425.9Zm-7.247,12.808a1.642,1.642,0,1,1-1.665,1.642A1.653,1.653,0,0,1,570.554,438.705Zm20.882,12.957a1.641,1.641,0,1,1-1.665,1.64A1.653,1.653,0,0,1,591.436,451.662Zm4.037,11.785a2.011,2.011,0,0,1-1.415.582H558.006a2.009,2.009,0,0,1-1.415-.582,1.952,1.952,0,0,1-.59-1.395V441.321a1.95,1.95,0,0,1,.59-1.4,2.007,2.007,0,0,1,1.415-.582v-1.969a3.984,3.984,0,0,0-4,3.947v20.73a3.984,3.984,0,0,0,4,3.947h36.052a3.983,3.983,0,0,0,4-3.947h-2A1.952,1.952,0,0,1,595.473,463.447Z" transform="translate(-554 -420)"/>
</svg>
