<svg xmlns="http://www.w3.org/2000/svg" width="37" height="30.969" viewBox="0 0 37 30.969">
<defs>
    <style>
      .help3 {
        fill: #404040;
        fill-rule: evenodd;
      }
    </style>
  </defs>
  <path class="help3" d="M598,714.6v21.824a2.52,2.52,0,0,1-2.475,2.537h-9.6a1,1,0,0,1-1-1.023,1.027,1.027,0,0,1,1-1.023h9.6a0.468,0.468,0,0,0,.479-0.491V714.6a0.467,0.467,0,0,0-.479-0.49H579.66l0.319,0.327a1.006,1.006,0,0,1,0,1.432,0.9,0.9,0,0,1-.679.327,1.007,1.007,0,0,1-.718-0.286l-2.036-2.087a1,1,0,0,1,0-1.432l2.036-2.086a0.948,0.948,0,0,1,1.4,0,1.006,1.006,0,0,1,0,1.432l-0.319.327h15.865A2.493,2.493,0,0,1,598,714.6Zm-15.147,22.6a1,1,0,0,1,0,1.432l-2.036,2.087a1.046,1.046,0,0,1-1.437,0,1.006,1.006,0,0,1,0-1.432l0.32-.327H563.475A2.52,2.52,0,0,1,561,736.421V714.6a2.519,2.519,0,0,1,2.475-2.536h10a1.023,1.023,0,0,1,0,2.046h-10a0.467,0.467,0,0,0-.479.49v21.824a0.468,0.468,0,0,0,.479.491h16.264l-0.319-.327a1.006,1.006,0,0,1,0-1.432,0.947,0.947,0,0,1,1.4,0Z" transform="translate(-561 -710.031)"/>
</svg>
