<svg xmlns="http://www.w3.org/2000/svg" width="17" height="14" viewBox="0 0 17 14">
  <metadata><?xpacket begin="﻿" id="W5M0MpCehiHzreSzNTczkc9d"?>
<x:xmpmeta xmlns:x="adobe:ns:meta/" x:xmptk="Adobe XMP Core 5.6-c138 79.159824, 2016/09/14-01:09:01        ">
   <rdf:RDF xmlns:rdf="http://www.w3.org/1999/02/22-rdf-syntax-ns#">
      <rdf:Description rdf:about=""/>
   </rdf:RDF>
</x:xmpmeta>
<?xpacket end="w"?></metadata>
<defs>
    <style>
      .in-basket {
        fill: #303030;
        fill-rule: evenodd;
      }
    </style>
  </defs>
  <path  class="in-basket" d="M762.63,1944.89a2.061,2.061,0,0,0-1.656-.76h-1.919l-2.418-4.65a0.936,0.936,0,0,0-1.236-.4,0.872,0.872,0,0,0-.412,1.19l2.006,3.86h-4.944l2.006-3.86a0.871,0.871,0,0,0-.412-1.19,0.936,0.936,0,0,0-1.236.4l-2.418,4.65h-1.919a2.122,2.122,0,0,0-1.663.74,1.961,1.961,0,0,0-.348,1.74l1.128,4.34a2.9,2.9,0,0,0,2.726,2.05h8.848a3.038,3.038,0,0,0,2.781-1.99l1.364-4.38A1.882,1.882,0,0,0,762.63,1944.89Zm-1.488,1.23-1.364,4.38a1.19,1.19,0,0,1-1.015.72h-8.848a1.07,1.07,0,0,1-.938-0.7l-1.128-4.34a0.251,0.251,0,0,1,.013-0.21,0.278,0.278,0,0,1,.21-0.07h12.9a0.3,0.3,0,0,1,.177.04A0.261,0.261,0,0,1,761.142,1946.12Z" transform="translate(-746 -1939)"/>
</svg>
