<svg xmlns="http://www.w3.org/2000/svg" width="50" height="50" viewBox="0 0 50 50">
  <metadata><?xpacket begin="﻿" id="W5M0MpCehiHzreSzNTczkc9d"?>
<x:xmpmeta xmlns:x="adobe:ns:meta/" x:xmptk="Adobe XMP Core 5.6-c138 79.159824, 2016/09/14-01:09:01        ">
   <rdf:RDF xmlns:rdf="http://www.w3.org/1999/02/22-rdf-syntax-ns#">
      <rdf:Description rdf:about=""/>
   </rdf:RDF>
</x:xmpmeta>
<?xpacket end="w"?></metadata>
<defs>
    <style>
      .cls-1 {
        fill: #0078ab;
        fill-rule: evenodd;
      }
    </style>
  </defs>
  <path id="Фигура_28" data-name="Фигура 28" class="cls-1" d="M373.305,308.543l-0.39-.306-0.37-.313-0.348-.313-0.327-.312-0.306-.32-0.284-.32-0.263-.32-0.242-.32-0.228-.32-0.206-.32-0.192-.319-0.17-.32-0.15-.32-0.142-.313-0.121-.32-0.1-.306-0.093-.312-0.078-.306-0.057-.306-0.049-.3-0.036-.292-0.021-.291-0.014-.285v-0.277l0.014-.277,0.021-.263,0.029-.263,0.042-.256,0.05-.241,0.064-.242,0.064-.228,0.078-.22,0.078-.213,0.086-.206,0.092-.193,0.1-.184,0.106-.171,0.107-.163,0.113-.149,0.114-.143,0.114-.128,0.121-.113,0.121-.1,0.121-.093,0.128-.071,0.12-.064,0.128-.049,0.121-.029,0.121-.014,0.121-.007,0.113,0.014,0.114,0.036,0.114,0.049,0.107,0.064,0.1,0.079,0.1,0.1,0.092,0.121,0.085,0.135,0.086,0.156,0.071,0.178,0.064,0.192,0.057,0.22,0.049,0.235,0.043,0.256-0.007-.014-0.029-.036-0.049-.042-0.064-.05-0.093-.043-0.106-.028h-0.121l-0.071.007-0.078.021-0.079.036-0.071.049-0.064.064-0.064.072-0.049.092-0.043.1-0.036.1-0.028.114-0.014.113-0.007.114,0.007,0.121,0.021,0.114,0.028,0.114,0.043,0.106,0.057,0.1,0.071,0.092,0.085,0.085,0.086,0.071L372.1,300.4l0.085,0.043,0.093,0.036,0.092,0.021,0.085,0.007,0.093-.007,0.085-.015,0.078-.028,0.078-.043,0.072-.049,0.071-.064,0.057-.078,0.056-.086,0.043-.1,0.05-.142,0.035-.136,0.029-.135,0.014-.149,0.043,0.718,0.064,0.718,0.085,0.725,0.1,0.725,0.121,0.725,0.135,0.718,0.164,0.718,0.178,0.718,0.2,0.7,0.22,0.689,0.242,0.69,0.263,0.668,0.284,0.661,0.313,0.647,0.327,0.626,0.355,0.6-0.049-.029-0.079-.035-0.092-.05-0.107-.057-0.128-.064-0.142-.078-0.163-.092-0.171-.1-0.185-.114-0.206-.128-0.206-.135-0.228-.149-0.227-.163-0.242-.178-0.249-.192-0.263-.2Zm17.388,0h0Zm0,0,0.391-.306,0.369-.313,0.349-.313,0.327-.312,0.305-.32,0.285-.32,0.263-.32,0.241-.32,0.228-.32,0.206-.32,0.192-.319,0.171-.32,0.149-.32,0.142-.313,0.121-.32,0.1-.306,0.093-.312,0.078-.306,0.057-.306,0.05-.3,0.035-.292,0.021-.291,0.015-.285v-0.277l-0.015-.277-0.021-.263-0.028-.263-0.043-.256-0.05-.241-0.064-.242-0.064-.228-0.071-.22-0.085-.213-0.085-.206-0.093-.193-0.1-.184-0.107-.171-0.107-.163-0.113-.149-0.114-.143-0.114-.128-0.121-.113-0.12-.1-0.121-.093-0.128-.071L393,297.133l-0.128-.049-0.121-.029-0.121-.014-0.121-.007-0.113.014-0.114.036-0.114.049-0.106.064-0.1.079-0.1.1-0.093.121-0.085.135-0.085.156-0.072.178-0.064.192-0.056.22-0.05.235-0.043.256,0.007-.014,0.029-.036,0.05-.042,0.063-.05,0.086-.043,0.106-.028h0.128l0.071,0.007,0.079,0.021,0.078,0.036,0.071,0.049,0.064,0.064L392.2,298.9,392.257,299l0.042,0.1,0.036,0.1,0.021,0.114,0.014,0.113,0.008,0.114-0.008.121-0.014.114-0.028.114-0.043.106-0.057.1-0.071.092-0.085.085-0.086.071-0.085.057-0.085.043-0.093.036-0.092.021-0.085.007-0.093-.007-0.085-.015-0.078-.028-0.078-.043-0.071-.049-0.071-.064-0.057-.078-0.057-.086-0.043-.1-0.05-.142-0.035-.136-0.029-.135-0.014-.149-0.043.718-0.063.718-0.086.725-0.1.725-0.121.725-0.135.718-0.164.718-0.177.718-0.2.7-0.221.689-0.241.69-0.271.668-0.284.661-0.306.647-0.334.626-0.355.6,0.057-.029,0.078-.035,0.092-.05,0.107-.057,0.128-.064,0.142-.078,0.164-.092,0.17-.1,0.185-.114,0.2-.128,0.213-.135,0.221-.149,0.234-.163,0.242-.178,0.249-.192,0.263-.2Zm-8.673-16.208h0Zm0,0h-0.44l-0.206.007-0.214.008-0.234.014-0.249.014-0.263.021-0.27.029-0.576.064-0.6.078-0.626.106-0.632.121-0.633.143-0.618.17-0.6.192-0.277.107-0.277.114-0.263.12-0.249.128-0.234.128-0.214.142-0.206.15-0.178.156-0.163.163-0.142.171V294.7l-0.007.057-0.015.078-0.014.121-0.021.142-0.021.178-0.022.206-0.021.235-0.021.256-0.022.291-0.021.306-0.014.341-0.014.356-0.008.376v0.825l-0.064-.348-0.092-.32-0.121-.292-0.135-.263-0.156-.234-0.178-.207-0.192-.177-0.206-.143-0.213-.12-0.228-.086-0.234-.056-0.242-.029-0.249.007-0.249.036-0.248.064-0.249.092-0.242.121-0.234.156-0.235.192-0.22.213-0.207.249-0.2.285-0.177.313-0.164.341-0.149.376-0.121.406-0.1.44-0.079.47-0.028.248-0.021.249-0.015.27-0.007.27,0.007,0.278,0.007,0.291,0.015,0.292,0.028,0.305,0.05,0.4,0.064,0.384,0.071,0.377,0.092,0.362,0.107,0.356,0.121,0.341,0.135,0.327,0.142,0.32,0.156,0.313,0.171,0.3,0.178,0.292,0.192,0.284,0.192,0.277,0.213,0.263,0.213,0.263,0.228,0.249,0.469,0.483,0.5,0.462,0.519,0.441,0.541,0.427,0.561,0.4,0.562,0.391,1.151,0.768,1.145,0.76,0.554,0.377,0.548,0.391,0.526,0.4,0.5,0.4,0.477,0.427,0.447,0.44,0.214,0.228,0.2,0.234,0.192,0.242,0.185,0.249,0.17,0.249,0.164,0.263,0.149,0.27,0.135,0.277,0.128,0.284,0.106,0.292,0.1,0.305,0.085,0.313,0.064,0.32,0.057,0.334,0.036,0.341,0.021,0.356V318.4l0.007,0.029v0.049l0.007,0.071v0.3l-0.007.128-0.021.305-0.036.285-0.042.256-0.057.241-0.071.214-0.079.2-0.092.177-0.1.164-0.27.107-0.255.128-0.249.142-0.235.156-0.22.178-0.213.192-0.2.206-0.184.227-0.171.228-0.149.248-0.135.257-0.121.27-0.1.277-0.085.284-0.057.3-0.042.3-0.278.192-0.263.221-0.121.12-0.12.128-0.107.135-0.092.142-0.086.15-0.064.156-0.057.157-0.035.17-0.014.171,0.007,0.178,0.028,0.185,0.05,0.184h-1.081l-0.042.142-0.071.121-0.093.093-0.106.056v4.109L374.72,332.6v1.066h14.558V332.6l-0.632-1.472v-4.109l-0.107-.056-0.093-.093-0.071-.121-0.042-.142h-1.081l0.05-.184,0.028-.185,0.008-.178-0.015-.171-0.035-.17-0.057-.157-0.064-.156-0.085-.15-0.093-.142-0.106-.135-0.121-.128-0.121-.12-0.263-.221-0.277-.192-0.043-.3-0.057-.3-0.085-.284-0.1-.277-0.12-.27-0.136-.257-0.149-.248-0.17-.228-0.185-.227-0.2-.206-0.214-.192-0.227-.178-0.235-.156-0.248-.142-0.256-.128-0.27-.107-0.1-.164-0.092-.177-0.078-.2-0.065-.214-0.056-.241-0.05-.256-0.029-.285-0.021-.305-0.007-.128-0.007-.114,0.007-.1v-0.086l0.007-.071v-0.049l0.007-.029v-0.014l0.021-.356,0.036-.341,0.057-.334,0.064-.32,0.085-.313,0.1-.305,0.106-.292,0.128-.284,0.135-.277,0.15-.27,0.156-.263,0.178-.249,0.178-.249,0.191-.242,0.207-.234,0.206-.228,0.448-.44,0.483-.427,0.505-.4,0.526-.4,0.54-.391,0.561-.377,1.145-.76,1.144-.768,0.569-.391,0.555-.4,0.54-.427,0.526-.441,0.5-.462,0.477-.483,0.227-.249,0.213-.263,0.206-.263,0.2-.277,0.193-.284,0.177-.292,0.171-.3,0.156-.313,0.142-.32,0.135-.327,0.121-.341,0.107-.356,0.092-.362,0.071-.377,0.064-.384,0.05-.4,0.029-.305,0.014-.292,0.007-.291,0.007-.278-0.007-.27-0.014-.27-0.022-.249-0.028-.248-0.078-.47-0.1-.44-0.121-.406-0.149-.376-0.163-.341-0.178-.313-0.2-.285-0.206-.249-0.221-.213-0.234-.192-0.235-.156-0.242-.121-0.248-.092-0.249-.064-0.249-.036-0.249-.007-0.241.029-0.235.056-0.228.086-0.22.12-0.206.143-0.192.177-0.17.207-0.164.234-0.135.263-0.114.292-0.1.32-0.064.348v-0.825l-0.007-.376-0.015-.356-0.014-.341-0.021-.306-0.021-.291-0.022-.256-0.021-.235-0.021-.206-0.022-.178-0.014-.142-0.021-.121-0.007-.078-0.015-.057v-0.014l-0.142-.171-0.163-.163-0.178-.156-0.206-.15-0.213-.142-0.235-.128-0.249-.128-0.263-.12-0.27-.114-0.284-.107-0.6-.192-0.612-.17-0.632-.143-0.633-.121-0.626-.106-0.611-.078-0.576-.064-0.27-.029-0.263-.021-0.249-.014-0.234-.014-0.213-.008-0.207-.007H382.02ZM382,288h0Zm0,0,0.647,0.007,0.64,0.029,0.639,0.035,0.633,0.057,0.626,0.071,0.625,0.092,0.619,0.1,0.611,0.114,0.6,0.135,0.6,0.149,0.6,0.156,0.59,0.178,0.583,0.192,0.582,0.2,0.569,0.221,0.562,0.227,0.561,0.249,0.548,0.256,0.54,0.27,0.54,0.277,0.526,0.3,0.519,0.305,0.512,0.32,0.5,0.327,0.491,0.348,0.49,0.356,0.477,0.362,0.462,0.377,0.462,0.384,0.448,0.4,0.44,0.413,0.427,0.419,0.419,0.426,0.413,0.441,0.4,0.448,0.384,0.462,0.376,0.462,0.363,0.476,0.355,0.491,0.349,0.49,0.326,0.5,0.32,0.512,0.306,0.519,0.3,0.526,0.277,0.54,0.27,0.54,0.256,0.548,0.249,0.561,0.227,0.562,0.22,0.568,0.2,0.583,0.192,0.583,0.177,0.59,0.157,0.6,0.149,0.6,0.135,0.6,0.114,0.611,0.1,0.618,0.093,0.626,0.071,0.626,0.057,0.632,0.035,0.64,0.029,0.64L407,313l-0.007.646-0.029.64-0.035.64-0.057.633-0.071.625-0.093.626-0.1.618-0.114.611-0.135.605-0.149.6-0.157.6-0.177.59-0.192.583-0.2.583-0.22.569-0.227.561-0.249.562-0.256.547-0.27.54-0.277.541-0.3.526-0.306.519-0.32.511-0.326.505-0.349.49-0.355.491-0.363.476-0.376.462-0.384.462-0.4.448-0.413.441-0.419.426-0.427.42-0.44.412-0.448.4-0.462.384-0.462.377-0.477.362-0.49.356-0.491.348-0.5.327-0.512.32-0.519.305-0.526.3-0.54.277-0.54.271-0.548.255-0.561.249-0.562.228-0.569.22-0.582.2-0.583.192-0.59.178-0.6.156-0.6.149-0.6.135-0.611.114-0.619.1-0.625.092-0.626.071-0.633.057-0.639.035-0.64.029L382,338l-0.647-.007-0.64-.029-0.639-.035-0.633-.057-0.625-.071-0.626-.092-0.618-.1-0.612-.114-0.6-.135-0.6-.149-0.6-.156-0.59-.178-0.583-.192-0.583-.2-0.569-.22-0.561-.228-0.562-.249-0.547-.255-0.541-.271-0.54-.277-0.526-.3-0.519-.305-0.512-.32-0.5-.327-0.491-.348-0.49-.356-0.476-.362-0.462-.377-0.463-.384-0.447-.4-0.441-.412-0.427-.42-0.419-.426-0.412-.441-0.4-.448-0.384-.462-0.377-.462-0.363-.476-0.355-.491-0.348-.49-0.327-.505-0.32-.511-0.306-.519-0.3-.526-0.278-.541-0.27-.54-0.256-.547-0.248-.562-0.228-.561-0.22-.569-0.2-.583-0.192-.583-0.178-.59-0.156-.6-0.15-.6-0.135-.605-0.113-.611-0.1-.618-0.092-.626-0.071-.625-0.057-.633-0.036-.64-0.028-.64L357,313l0.007-.647,0.028-.64,0.036-.64,0.057-.632,0.071-.626,0.092-.626,0.1-.618,0.113-.611,0.135-.6,0.15-.6,0.156-.6,0.178-.59,0.192-.583,0.2-.583,0.22-.568,0.228-.562,0.248-.561,0.256-.548,0.27-.54,0.278-.54,0.3-.526,0.306-.519,0.32-.512,0.327-.5,0.348-.49,0.355-.491,0.363-.476,0.377-.462,0.384-.462,0.4-.448,0.412-.441,0.419-.426,0.427-.419,0.441-.413,0.447-.4,0.463-.384,0.462-.377,0.476-.362,0.49-.356,0.491-.348,0.5-.327,0.512-.32,0.519-.305,0.526-.3,0.54-.277,0.541-.27,0.547-.256,0.562-.249,0.561-.227,0.569-.221,0.583-.2,0.583-.192,0.59-.178,0.6-.156,0.6-.149,0.6-.135,0.612-.114,0.618-.1,0.626-.092,0.625-.071,0.633-.057,0.639-.035,0.64-.029Z" transform="translate(-357 -288)"/>
</svg>
