<svg xmlns="http://www.w3.org/2000/svg" width="25" height="30" viewBox="0 0 25 30">
  <metadata><?xpacket begin="﻿" id="W5M0MpCehiHzreSzNTczkc9d"?>
<x:xmpmeta xmlns:x="adobe:ns:meta/" x:xmptk="Adobe XMP Core 5.6-c138 79.159824, 2016/09/14-01:09:01        ">
   <rdf:RDF xmlns:rdf="http://www.w3.org/1999/02/22-rdf-syntax-ns#">
      <rdf:Description rdf:about=""/>
   </rdf:RDF>
</x:xmpmeta>
<?xpacket end="w"?></metadata>
<defs>
    <style>
      .one-click {
        fill: #fff;
        fill-rule: evenodd;
      }
    </style>
  </defs>
  <path class="one-click" d="M1514.49,701.391a3.61,3.61,0,0,0-1.06.164,3.388,3.388,0,0,0-3.31-2.4,3.694,3.694,0,0,0-1.29.236,3.438,3.438,0,0,0-3.33-2.478h-0.02a3.557,3.557,0,0,0-.94.141v-2.537a3.505,3.505,0,1,0-7.01,0v9.043a3.549,3.549,0,0,0-1.03-.162,3.431,3.431,0,0,0-3.5,3.522V713a7.894,7.894,0,0,0,7.96,8h9.08a7.9,7.9,0,0,0,7.96-8v-8.081A3.478,3.478,0,0,0,1514.49,701.391Zm1.12,11.6a5.53,5.53,0,0,1-5.57,5.6h-9.08a5.524,5.524,0,0,1-5.57-5.6v-6.08a1.064,1.064,0,0,1,1.11-1.12,1.042,1.042,0,0,1,1.03.677v3.563a1.2,1.2,0,1,0,2.39,0v-2.7a1.187,1.187,0,0,0,.08-0.423,3.833,3.833,0,0,0-.08-0.766V694.512a1.115,1.115,0,1,1,2.23,0v8.8a1.2,1.2,0,1,0,2.39,0v-3.364a1,1,0,0,1,.82-0.629,1.265,1.265,0,0,1,.13-0.007h0.01a1.069,1.069,0,0,1,1.11,1.121v2.879a1.2,1.2,0,1,0,2.39,0v-0.637a1.115,1.115,0,1,1,2.23,0v2.879a1.2,1.2,0,1,0,2.39,0v-1.294a1.019,1.019,0,0,1,.87-0.465,1.072,1.072,0,0,1,1.12,1.121V713Z" transform="translate(-1493 -691)"/>
</svg>
