<svg xmlns="http://www.w3.org/2000/svg" width="168.97" height="155" viewBox="0 0 168.97 155">
  <metadata><?xpacket begin="﻿" id="W5M0MpCehiHzreSzNTczkc9d"?>
<x:xmpmeta xmlns:x="adobe:ns:meta/" x:xmptk="Adobe XMP Core 5.6-c138 79.159824, 2016/09/14-01:09:01        ">
   <rdf:RDF xmlns:rdf="http://www.w3.org/1999/02/22-rdf-syntax-ns#">
      <rdf:Description rdf:about=""/>
   </rdf:RDF>
</x:xmpmeta>
<?xpacket end="w"?></metadata>
<defs>
    <style>
      .portfolio {
        fill: #fd5;
        fill-rule: evenodd;
      }
    </style>
  </defs>
  <path class="portfolio" d="M1389.73,464c-14.09,0-25.8,10.968-25.8,24.306v9.127h-28.14a16.666,16.666,0,0,0-16.77,16.363v88.9a16.608,16.608,0,0,0,16.77,16.3h135.44a16.606,16.606,0,0,0,16.76-16.3V513.8a16.656,16.656,0,0,0-16.76-16.363h-28.21v-9.127c0-13.338-11.7-24.306-25.79-24.306h-27.5v0Zm0.06,10.077h27.5c8.54,0,15.49,6.7,15.49,14.229v9.127H1374.3v-9.127c0-7.529,6.95-14.229,15.49-14.229h0Zm-54,33.376h135.44a6.318,6.318,0,0,1,6.46,6.345v35.856h-17.41v-8.418a5.206,5.206,0,0,0-5.12-4.979H1437.9a5.212,5.212,0,0,0-5.18,4.979v8.418H1374.3v-8.418a5.219,5.219,0,0,0-5.18-4.979h-17.26a5.206,5.206,0,0,0-5.12,4.979v8.418h-17.41V513.8a6.312,6.312,0,0,1,6.46-6.345h0Zm21.25,38.881h6.89v16.72h-6.89v-16.72h0Zm86.04,0h6.89v16.72h-6.89v-16.72h0Zm-113.75,13.338h17.41v8.419a5.3,5.3,0,0,0,5.12,5.038h17.26a5.312,5.312,0,0,0,5.18-5.038v-8.419h58.42v8.419a5.312,5.312,0,0,0,5.18,5.038h17.26a5.3,5.3,0,0,0,5.12-5.038v-8.419h17.41v43.022a6.269,6.269,0,0,1-6.46,6.283H1335.79a6.263,6.263,0,0,1-6.46-6.283V559.671h0Z" transform="translate(-1319.03 -464)"/>
</svg>
