<svg xmlns="http://www.w3.org/2000/svg" width="21" height="21" viewBox="0 0 21 21">
  <metadata><?xpacket begin="﻿" id="W5M0MpCehiHzreSzNTczkc9d"?>
<x:xmpmeta xmlns:x="adobe:ns:meta/" x:xmptk="Adobe XMP Core 5.6-c138 79.159824, 2016/09/14-01:09:01        ">
   <rdf:RDF xmlns:rdf="http://www.w3.org/1999/02/22-rdf-syntax-ns#">
      <rdf:Description rdf:about=""/>
   </rdf:RDF>
</x:xmpmeta>
<?xpacket end="w"?></metadata>
<defs>
    <style>
      .print {
        fill: #303030;
        fill-rule: evenodd;
      }
    </style>
  </defs>
  <path class="print" d="M1572,476.257a2.179,2.179,0,0,0-.6-1.469,2.133,2.133,0,0,0-1.42-.635c-0.06,0-.12,0-0.18,0h-1.77v-2.893a0.161,0.161,0,0,0,0-.069h0a1.229,1.229,0,0,0-.06-0.378,1.167,1.167,0,0,0-.28-0.461h0a1.229,1.229,0,0,0-.84-0.346h-9.35c-0.43,0-.87,0-1.3,0h-0.01a1.2,1.2,0,0,0-1.19,1.185v2.962h-1.89a2.112,2.112,0,0,0-.58.083,2.241,2.241,0,0,0-.82.452,1.984,1.984,0,0,0-.65,1.095,5.82,5.82,0,0,0-.06,1.1v7.632a2.623,2.623,0,0,0,.35,1.6,2.126,2.126,0,0,0,1.28.893,3.022,3.022,0,0,0,.55.057h2.06v2.751a1.2,1.2,0,0,0,1.18,1.184h8.94c0.41,0,.82,0,1.23,0h0.02a1.206,1.206,0,0,0,1.19-1.184v-2.751h2.06a2.091,2.091,0,0,0,1.59-.711,2.166,2.166,0,0,0,.43-0.739,2.4,2.4,0,0,0,.11-0.6v-6.634c0-.657.01-1.313,0-1.969A0.823,0.823,0,0,0,1572,476.257Zm-12.21-3.885h5.87v1.777h-8.29v-1.776h2.42Zm3.37,16.256h-5.55v-5.357h7.8v2.606c0,0.048.01,0.1,0.01,0.143v2.608h-2.26Zm5.67-3.931h-1.03v-1.426h0.16a1.188,1.188,0,0,0,1.19-1.185,1.162,1.162,0,0,0-.35-0.839,1.242,1.242,0,0,0-.84-0.346h-1.28c-0.02,0-.05,0-0.07,0h-8.94c-0.41,0-.82,0-1.23,0h-1.4a1.252,1.252,0,0,0-.84.346,1.205,1.205,0,0,0,0,1.678,1.252,1.252,0,0,0,.84.346h0.19V484.7h-1.86c0-.191.01-0.384,0.01-0.57v-7.612l0.16,0h11.99c0.43,0,.87.005,1.3,0h2.8V484.7h-0.8Zm-0.74-6.814a1.233,1.233,0,0,0-.84-0.346h-0.78a1.214,1.214,0,0,0-.84.346,1.179,1.179,0,0,0,0,1.677,1.242,1.242,0,0,0,.84.346h0.78a1.248,1.248,0,0,0,.84-0.346,1.2,1.2,0,0,0,.35-0.838A1.249,1.249,0,0,0,1568.09,477.883Zm-4.2,7.155a1.251,1.251,0,0,0-.84-0.345h-3.07a1.251,1.251,0,0,0-.84.345,1.205,1.205,0,0,0,0,1.678,1.242,1.242,0,0,0,.84.346h3.07a1.252,1.252,0,0,0,.84-0.346A1.205,1.205,0,0,0,1563.89,485.038Z" transform="translate(-1551 -470)"/>
</svg>
