<svg xmlns="http://www.w3.org/2000/svg" width="113.97" height="81" viewBox="0 0 113.97 81">
  <metadata><?xpacket begin="﻿" id="W5M0MpCehiHzreSzNTczkc9d"?>
<x:xmpmeta xmlns:x="adobe:ns:meta/" x:xmptk="Adobe XMP Core 5.6-c138 79.159824, 2016/09/14-01:09:01        ">
   <rdf:RDF xmlns:rdf="http://www.w3.org/1999/02/22-rdf-syntax-ns#">
      <rdf:Description rdf:about=""/>
   </rdf:RDF>
</x:xmpmeta>
<?xpacket end="w"?></metadata>
<defs>
    <style>
      .quotes {
        fill: #ead06a;
        fill-rule: evenodd;
      }
    </style>
  </defs>
  <path class="quotes" d="M1443.71,1293.97q24.78-9.27,37.82-26.13,13.05-16.875,13.05-33.37a21.359,21.359,0,0,0-5.87-15.39q-5.88-6.12-13.51-6.12a17.348,17.348,0,0,0-12.95,5.75,19.188,19.188,0,0,0-5.5,13.72,18.76,18.76,0,0,0,1.31,7.23q0.555,1.665,5.03,6.12,4.47,4.44,5.22,5.93a16.337,16.337,0,0,1,1.11,6.12q0,6.855-6.7,14.27a68.028,68.028,0,0,1-22.73,15.94Zm59.39,0q24.78-9.27,37.83-26.13,13.035-16.875,13.04-33.37a21.359,21.359,0,0,0-5.87-15.39q-5.865-6.12-13.51-6.12a17.348,17.348,0,0,0-12.95,5.75,19.179,19.179,0,0,0-5.49,13.72,18.762,18.762,0,0,0,1.3,7.23q0.555,1.665,5.03,6.12,4.47,4.44,5.22,5.93a16.339,16.339,0,0,1,1.12,6.12q0,6.855-6.71,14.27a68.028,68.028,0,0,1-22.73,15.94Z" transform="translate(-1440 -1212.97)"/>
</svg>
