<svg xmlns="http://www.w3.org/2000/svg" width="24.84" height="24.969" viewBox="0 0 24.84 24.969">
  <metadata><?xpacket begin="﻿" id="W5M0MpCehiHzreSzNTczkc9d"?>
<x:xmpmeta xmlns:x="adobe:ns:meta/" x:xmptk="Adobe XMP Core 5.6-c138 79.159824, 2016/09/14-01:09:01        ">
   <rdf:RDF xmlns:rdf="http://www.w3.org/1999/02/22-rdf-syntax-ns#">
      <rdf:Description rdf:about=""/>
   </rdf:RDF>
</x:xmpmeta>
<?xpacket end="w"?></metadata>
<defs>
    <style>
      .cls-1 {
        fill: #404040;
        fill-rule: evenodd;
      }
    </style>
  </defs>
  <path id="Фигура_27" data-name="Фигура 27" class="cls-1" d="M1310.58,321.216l-6.09-6.105a10.469,10.469,0,0,0-.67-14.04,10.511,10.511,0,1,0-.79,15.5l6.09,6.106a0.958,0.958,0,0,0,1.39,0A1.009,1.009,0,0,0,1310.58,321.216Zm-20.07-6.786a8.5,8.5,0,0,1,0-11.959,8.373,8.373,0,0,1,11.91,0,8.5,8.5,0,0,1,0,11.959A8.407,8.407,0,0,1,1290.51,314.43Z" transform="translate(-1286 -298)"/>
</svg>
