<svg xmlns="http://www.w3.org/2000/svg" width="58" height="47" viewBox="0 0 58 47">
  <metadata><?xpacket begin="﻿" id="W5M0MpCehiHzreSzNTczkc9d"?>
<x:xmpmeta xmlns:x="adobe:ns:meta/" x:xmptk="Adobe XMP Core 5.6-c138 79.159824, 2016/09/14-01:09:01        ">
   <rdf:RDF xmlns:rdf="http://www.w3.org/1999/02/22-rdf-syntax-ns#">
      <rdf:Description rdf:about=""/>
   </rdf:RDF>
</x:xmpmeta>
<?xpacket end="w"?></metadata>
<defs>
    <style>
      .services3 {
        fill: #404040;
        fill-rule: evenodd;
      }
    </style>
  </defs>
  <path class="services3" d="M607,847h-4v-2a1,1,0,0,0-1-1h-8a1,1,0,0,0-1,1v2h-9v-2a1,1,0,0,0-1-1h-8a1,1,0,0,0-1,1v2h-9v-2a1,1,0,0,0-1-1h-8a1,1,0,0,0-1,1v2h-4a1,1,0,0,0-1,1v27.986a1,1,0,0,0,1,1h19v3a1,1,0,0,0,1,1h1v3a1,1,0,0,0,1,1h3V891h2v-6.02h2V891h2v-6.02h3a1,1,0,0,0,1-1v-3h1a1,1,0,0,0,1-1v-3h19a1,1,0,0,0,1-1V848A1,1,0,0,0,607,847Zm-12,1v-2h6v4h-6v-2Zm-19,0v-2h6v4h-6v-2Zm-19,0v-2h6v4h-6v-2Zm27,34.983H574v-2h10v2Zm2-4H572v-2h14v2Zm20-4H552V849h3v2h0a1,1,0,0,0,1,1h8a1,1,0,0,0,1-1h0v-2h9v2h0a1,1,0,0,0,1,1h8a1,1,0,0,0,1-1h0v-2h9v2h0a1,1,0,0,0,1,1h8a1,1,0,0,0,1-1h0v-2h3v25.988Z" transform="translate(-550 -844)"/>
</svg>
