<svg xmlns="http://www.w3.org/2000/svg" width="45" height="34" viewBox="0 0 45 34">
  <metadata><?xpacket begin="﻿" id="W5M0MpCehiHzreSzNTczkc9d"?>
<x:xmpmeta xmlns:x="adobe:ns:meta/" x:xmptk="Adobe XMP Core 5.6-c138 79.159824, 2016/09/14-01:09:01        ">
   <rdf:RDF xmlns:rdf="http://www.w3.org/1999/02/22-rdf-syntax-ns#">
      <rdf:Description rdf:about=""/>
   </rdf:RDF>
</x:xmpmeta>
<?xpacket end="w"?></metadata>
<defs>
    <style>
      .services1 {
        fill: #404040;
        fill-rule: evenodd;
      }
    </style>
  </defs>
  <path class="services1" d="M594.4,444.672a0.855,0.855,0,0,1-.985.822H575.689a0.836,0.836,0,1,1,0-1.645h17.728A0.855,0.855,0,0,1,594.4,444.672Zm0,3.838a0.855,0.855,0,0,1-.985.822H575.689a0.836,0.836,0,1,1,0-1.645h17.728A0.856,0.856,0,0,1,594.4,448.51Zm0,3.839a0.855,0.855,0,0,1-.985.822H575.689a0.836,0.836,0,1,1,0-1.645h17.728A0.855,0.855,0,0,1,594.4,452.349Zm1.04-17.493A210.566,210.566,0,0,0,588.326,428H557.777A3.509,3.509,0,0,0,554,431.4v19.906a166.4,166.4,0,0,0,7.17,7.183v-0.11a3.626,3.626,0,0,0,3.668,3.62h30.6A3.487,3.487,0,0,0,599,458.435v-19.96A3.566,3.566,0,0,0,595.442,434.856Zm-37.611.055v18.041a1.61,1.61,0,0,1-1.642-1.645V431.4a1.715,1.715,0,0,1,1.588-1.809h30.6a1.579,1.579,0,0,1,1.642,1.645H561.28A3.491,3.491,0,0,0,557.831,434.911Zm3.285,3.564v17.986a2.842,2.842,0,0,1-1.642-2.193V434.362a1.63,1.63,0,0,1,1.806-1.48h30.6a1.779,1.779,0,0,1,1.642,2.193H564.838A3.529,3.529,0,0,0,561.116,438.475Zm36.242,19.631a1.65,1.65,0,0,1-1.642,1.646H564.947a1.649,1.649,0,0,1-1.642-1.646V438.365a1.649,1.649,0,0,1,1.642-1.645h30.769a1.649,1.649,0,0,1,1.642,1.645v19.741Z" transform="translate(-554 -428)"/>
</svg>
