<svg xmlns="http://www.w3.org/2000/svg" width="48" height="36" viewBox="0 0 48 36">
  <metadata><?xpacket begin="﻿" id="W5M0MpCehiHzreSzNTczkc9d"?>
<x:xmpmeta xmlns:x="adobe:ns:meta/" x:xmptk="Adobe XMP Core 5.6-c138 79.159824, 2016/09/14-01:09:01        ">
   <rdf:RDF xmlns:rdf="http://www.w3.org/1999/02/22-rdf-syntax-ns#">
      <rdf:Description rdf:about=""/>
   </rdf:RDF>
</x:xmpmeta>
<?xpacket end="w"?></metadata>
<defs>
    <style>
      .services1 {
        fill: #404040;
        fill-rule: evenodd;
      }
    </style>
  </defs>
  <path class="services1" d="M579.034,579.939a1.147,1.147,0,0,0,.682-0.206l5.188-3.854a1.206,1.206,0,0,0,.478-0.963v-6.743A1.2,1.2,0,0,0,584.221,567H573.778a1.2,1.2,0,0,0-1.16,1.169v6.743a1.317,1.317,0,0,0,.478.963l5.187,3.854A1.553,1.553,0,0,0,579.034,579.939Zm-4.027-10.6h8.122V574.3l-4.027,3.027-4.027-3.027v-4.954h-0.068Zm27.985,8.05v20.436a5.177,5.177,0,0,1-5.119,5.16H560.127a5.177,5.177,0,0,1-5.119-5.16V577.393a5.177,5.177,0,0,1,5.119-5.16h9.215a1.17,1.17,0,0,1,0,2.339h-9.215a2.823,2.823,0,0,0-2.8,2.821v20.436a2.823,2.823,0,0,0,2.8,2.821h37.746a2.822,2.822,0,0,0,2.8-2.821V577.393a2.822,2.822,0,0,0-2.8-2.821h-9.215a1.17,1.17,0,0,1,0-2.339h9.215A5.133,5.133,0,0,1,602.992,577.393Zm-30.442,4.266a4.232,4.232,0,1,0-4.232,4.266A4.226,4.226,0,0,0,572.55,581.659Zm-6.212,0a1.912,1.912,0,1,1,1.911,1.927A1.916,1.916,0,0,1,566.338,581.659Zm1.98,5.367c2.457,0,6.689,1.239,7.44,9.5a1.215,1.215,0,0,1-1.092,1.307h-0.137a1.188,1.188,0,0,1-1.16-1.1c-0.478-4.885-2.185-7.362-5.12-7.362s-4.641,2.477-5.119,7.362a1.2,1.2,0,1,1-2.389-.206C561.629,588.265,565.86,587.026,568.318,587.026Zm27.234-2.2a1.2,1.2,0,0,1-1.16,1.169H580.536a1.17,1.17,0,0,1,0-2.339h13.856A1.113,1.113,0,0,1,595.552,584.825Zm-1.229,5.642H580.467a1.17,1.17,0,0,1,0-2.34h13.856a1.2,1.2,0,0,1,1.161,1.17A1.115,1.115,0,0,1,594.323,590.467Zm-6.894,2.064a1.17,1.17,0,0,1,0,2.339h-6.893a1.17,1.17,0,0,1,0-2.339h6.893Z" transform="translate(-555 -567)"/>
</svg>
