<svg xmlns="http://www.w3.org/2000/svg" width="23" height="39" viewBox="0 0 23 39">
  <metadata><?xpacket begin="﻿" id="W5M0MpCehiHzreSzNTczkc9d"?>
<x:xmpmeta xmlns:x="adobe:ns:meta/" x:xmptk="Adobe XMP Core 5.6-c138 79.159824, 2016/09/14-01:09:01        ">
   <rdf:RDF xmlns:rdf="http://www.w3.org/1999/02/22-rdf-syntax-ns#">
      <rdf:Description rdf:about=""/>
   </rdf:RDF>
</x:xmpmeta>
<?xpacket end="w"?></metadata>
<defs>
    <style>
      .services2 {
        fill: #404040;
        fill-rule: evenodd;
      }
    </style>
  </defs>
  <path class="services2" d="M585.018,741H572a2.757,2.757,0,0,1-2.728-2.785h0a0.984,0.984,0,1,1,1.968,0,0.768,0.768,0,0,0,.76.776h13.018a0.767,0.767,0,0,0,.759-0.776h0a0.984,0.984,0,1,1,1.968,0A2.757,2.757,0,0,1,585.018,741h0Zm0.448-15.3h-1.247v-3.215a2.3,2.3,0,0,0-1.389-2.122c0.082-.434.173-0.865,0.267-1.266a17.287,17.287,0,0,1,2.106-4.94,8.111,8.111,0,0,0-1.472-10.109,7.7,7.7,0,0,0-9.509-.737,8.1,8.1,0,0,0-2.266,11.067,14.952,14.952,0,0,1,1.968,4.727c0.094,0.414.185,0.836,0.268,1.27a2.3,2.3,0,0,0-1.39,2.122v3.2h-1.255A4.6,4.6,0,0,0,567,730.345v3.308a1.989,1.989,0,0,0,1.967,2.01h19.071a1.99,1.99,0,0,0,1.968-2v-3.32A4.6,4.6,0,0,0,585.466,725.694ZM573.605,713.27a6.067,6.067,0,0,1-.925-2.6,5.953,5.953,0,0,1,5.148-6.626l0.012,0.012a5.821,5.821,0,0,1,4.58,1.483,6.068,6.068,0,0,1,1.1,7.565,19.264,19.264,0,0,0-2.337,5.538c-0.118.5-.225,1.025-0.323,1.556h-4.7c-0.1-.531-0.2-1.057-0.323-1.56A16.97,16.97,0,0,0,573.605,713.27Zm1.165,9.221a0.282,0.282,0,0,1,.279-0.285h6.923a0.282,0.282,0,0,1,.279.285v3.2H574.77v-3.2Zm13.266,11.162H568.958l0.011-3.308a2.61,2.61,0,0,1,2.578-2.633h13.911a2.61,2.61,0,0,1,2.578,2.633v3.308Z" transform="translate(-567 -702)"/>
</svg>
