<svg xmlns="http://www.w3.org/2000/svg" width="47" height="41" viewBox="0 0 47 41">
  <metadata><?xpacket begin="﻿" id="W5M0MpCehiHzreSzNTczkc9d"?>
<x:xmpmeta xmlns:x="adobe:ns:meta/" x:xmptk="Adobe XMP Core 5.6-c138 79.159824, 2016/09/14-01:09:01        ">
   <rdf:RDF xmlns:rdf="http://www.w3.org/1999/02/22-rdf-syntax-ns#">
      <rdf:Description rdf:about=""/>
   </rdf:RDF>
</x:xmpmeta>
<?xpacket end="w"?></metadata>
<defs>
    <style>
      .services4 {
        fill: #404040;
        fill-rule: evenodd;
      }
    </style>
  </defs>
  <path class="cls-1" d="M600.932,991.513h-7.494A6.3,6.3,0,0,0,588.648,981c-2.878,0-4.988,1.932-6.642,4.156-1.308,1.758-2.415,3.776-3.5,5.5-1.09-1.727-2.2-3.745-3.5-5.5-1.654-2.224-3.763-4.156-6.642-4.156a6.3,6.3,0,0,0-4.79,10.513H556.07a0.834,0.834,0,0,0-.1,0,1.1,1.1,0,0,0-.968,1.051v7.359a1.1,1.1,0,0,0,1.068,1.047h1.6v19.98a1.1,1.1,0,0,0,1.068,1.05h39.521a1.1,1.1,0,0,0,1.068-1.05v-19.98h1.6A1.1,1.1,0,0,0,602,999.923v-7.359A1.1,1.1,0,0,0,600.932,991.513Zm-17.207-5.125c1.5-2.014,3.018-3.286,4.923-3.286a4.216,4.216,0,0,1,4.273,4.205,4.259,4.259,0,0,1-4.122,4.206H580.42C581.52,989.765,582.59,987.913,583.725,986.388ZM568.354,983.1c1.9,0,3.425,1.272,4.923,3.286,1.135,1.525,2.2,3.377,3.3,5.125H568.2a4.259,4.259,0,0,1-4.123-4.206A4.216,4.216,0,0,1,568.354,983.1Zm5.34,36.8H559.809v-18.93h13.885v18.93Zm0-21.028H557.138v-5.257h16.556v5.257Zm2.137,21.028V993.615h5.34v5.257H578.1a1.049,1.049,0,1,0,0,2.1h3.07v18.93h-5.34Zm21.362,0H583.308v-18.93h13.885v18.93Zm2.671-21.028H583.308v-5.257h16.556v5.257Z" transform="translate(-555 -981)"/>
</svg>
