<svg xmlns="http://www.w3.org/2000/svg" width="190" height="162.031" viewBox="0 0 190 162.031">
  <metadata><?xpacket begin="﻿" id="W5M0MpCehiHzreSzNTczkc9d"?>
<x:xmpmeta xmlns:x="adobe:ns:meta/" x:xmptk="Adobe XMP Core 5.6-c138 79.159824, 2016/09/14-01:09:01        ">
   <rdf:RDF xmlns:rdf="http://www.w3.org/1999/02/22-rdf-syntax-ns#">
      <rdf:Description rdf:about=""/>
   </rdf:RDF>
</x:xmpmeta>
<?xpacket end="w"?></metadata>
<defs>
    <style>
      .state {
        fill: #fd5;
        fill-rule: evenodd;
      }
    </style>
  </defs>
  <path class="state" d="M1406.8,431.965a4.318,4.318,0,0,0-2.09.667l-79.89,48.9a4.267,4.267,0,0,0-2.03,3.665v10.728a4.3,4.3,0,0,0,4.32,4.262h12.96v59.7h-12.96c-0.13-.006-0.27-0.006-0.4,0a4.292,4.292,0,0,0-3.92,4.262v6.4h-6.47a4.293,4.293,0,0,0-4.32,4.266v14.924a4.292,4.292,0,0,0,4.32,4.264h181.36a4.292,4.292,0,0,0,4.32-4.264V574.811a4.293,4.293,0,0,0-4.32-4.266h-6.48v-6.4a4.287,4.287,0,0,0-4.31-4.262h-12.96v-59.7h12.96a4.287,4.287,0,0,0,4.31-4.262V485.2a4.235,4.235,0,0,0-2.02-3.665l-79.89-48.9A4.333,4.333,0,0,0,1406.8,431.965Zm0.2,9.263,75.57,46.3v4.131H1331.43v-4.131Zm0,9.927a14.924,14.924,0,1,0,15.11,14.922A15.079,15.079,0,0,0,1407,451.155Zm0,8.528a6.4,6.4,0,1,1-6.48,6.394A6.374,6.374,0,0,1,1407,459.683Zm-58.3,40.507h8.64v59.7h-8.64v-59.7Zm17.28,0h28.07v59.7h-28.07v-59.7Zm36.7,0h8.64v59.7h-8.64v-59.7Zm17.27,0h28.07v59.7h-28.07v-59.7Zm36.71,0h8.63v59.7h-8.63v-59.7Zm-125.23,68.225h151.14v6.4a4.289,4.289,0,0,0,4.32,4.262h6.47v6.4H1320.64v-6.4h6.47a4.289,4.289,0,0,0,4.32-4.262v-6.4Z" transform="translate(-1312 -431.969)"/>
</svg>
