<svg xmlns="http://www.w3.org/2000/svg" width="169" height="133" viewBox="0 0 169 133">
  <metadata><?xpacket begin="﻿" id="W5M0MpCehiHzreSzNTczkc9d"?>
<x:xmpmeta xmlns:x="adobe:ns:meta/" x:xmptk="Adobe XMP Core 5.6-c138 79.159824, 2016/09/14-01:09:01        ">
   <rdf:RDF xmlns:rdf="http://www.w3.org/1999/02/22-rdf-syntax-ns#">
      <rdf:Description rdf:about=""/>
   </rdf:RDF>
</x:xmpmeta>
<?xpacket end="w"?></metadata>
<defs>
    <style>
      .wreath {
        fill: #fd5;
        fill-rule: evenodd;
      }
    </style>
  </defs>
  <path class="wreath" d="M1414.05,588.466l-2.89-5.638-2.89,5.638-6.46.921,4.68,4.4-1.11,6.2,5.78-2.932,5.79,2.932-1.11-6.2,4.67-4.4Zm-63.28-16.313a23.737,23.737,0,0,0-3.75.62c6.87,6.24,18.77,9.4,25.78,3.627,1.2-6.615-2.07-16.463-5.33-21.068-2.91,4.642-4.29,13.25,1.05,18.381C1364.69,571.927,1359.82,571.27,1350.77,572.153Zm7.34-7.086a30.131,30.131,0,0,0-20.07-5.13c5.22,7.217,15.79,11.859,23.29,8.213,2.59-5.77,1.87-15.242-.74-21.05C1355.94,552.287,1354.32,559.8,1358.11,565.067Zm-5.97-7.273c3.76-4.9,4.81-14.283,3.2-20.11-5.04,4.1-7.89,11.126-5.41,16.915-4.9-5.638-13.69-7.912-18.07-8.307C1335.56,553.922,1344.61,559.8,1352.14,557.794Zm-23.26-25.673c2.03,7.311,9.14,14.7,16.5,14.077,4.38-4.022,6.48-12.592,5.64-18.456-5,3.045-8.75,8.42-7.72,13.945C1340.33,536.688,1335,533.681,1328.88,532.121Zm11.9,1.034c4.79-3.007,9-11.277,9.03-16.6-6.91,2.969-10.08,8.72-9.78,13.494A24.783,24.783,0,0,0,1327,517.48C1327.81,525.976,1334.76,532.629,1340.78,533.155Zm-2.18-13.118c3.89-1.6,10.33-7.857,10.6-15.524-7.52,3.382-10.33,8.889-10.76,12.761-0.68-3.609-3.27-9.247-10.97-12.761C1327.66,510.47,1332.63,518.571,1338.6,520.037Zm-0.33-13.307a17.269,17.269,0,0,0,10.31-14.716c-3.52,1.654-7.31,4.4-8.66,7.518a22.176,22.176,0,0,0-1.65,5.018c-0.36-3.158-2.35-8.8-10.31-12.536A17.281,17.281,0,0,0,1338.27,506.73Zm-9.69-27.214a10.347,10.347,0,1,0,19.43,0c-7.51,3.609-9.39,9.1-9.74,12.029C1337.97,488.612,1336.03,483.125,1328.58,479.516Zm56.97,87.262c-0.36,2.743,0,14.471,8.77,20.241-10.01-3.4-20.02,3.27-22.1,5.187,7.51,2.481,19.11,3.158,26.29-3.176C1399.52,579.764,1392.08,571.175,1385.55,566.778Zm-27.21,16.839c9.76,5.638,20.81,4.379,26.83-1.052,0.98-8.082-6.06-17.122-9.84-20.881-2.78,7.048-1.05,14.885,5.98,19.133C1371.88,577.942,1359.32,583.11,1358.34,583.617ZM1338.57,467c-4.08,5-5.11,12.122.15,15.506C1343.9,478.99,1342.68,471.83,1338.57,467Zm117,88.333c-3.27,4.605-6.53,14.453-5.33,21.068,7.08,5.638,18.91,2.613,25.78-3.627a23.671,23.671,0,0,0-3.76-.62c-9.05-.883-13.91-0.226-17.7,1.56C1459.85,568.582,1458.44,559.974,1455.57,555.332Zm6.84-8.232c-2.61,5.808-3.33,15.28-.74,21.05,7.52,3.646,18.07-1,23.29-8.213a30.131,30.131,0,0,0-20.07,5.13C1468.68,559.8,1467.06,552.287,1462.41,547.1Zm5.25-9.416c-1.61,5.827-.48,15.205,3.2,20.11,7.51,1.879,16.58-3.872,20.28-11.6-4.38.395-13.15,2.763-18.07,8.307C1475.55,548.81,1472.7,541.781,1467.66,537.684Zm4.19-9.942c-0.75,5.864,1.35,14.434,5.64,18.456,7.36,0.62,14.47-6.766,16.5-14.077-6.08,1.56-11.42,4.567-14.51,9.566C1480.6,536.162,1476.85,530.787,1471.85,527.742Zm11.12,2.312c0.3-4.774-2.87-10.525-9.79-13.494,0,5.412,4.25,13.588,9.04,16.6,6.02-.526,12.97-7.217,13.78-15.675A24.783,24.783,0,0,0,1482.97,530.054Zm1.43-10.017c6-1.466,10.94-9.567,11.13-15.524-7.7,3.514-10.29,9.152-10.97,12.761-0.43-3.872-3.32-9.4-10.76-12.761C1474.07,512.18,1480.51,518.458,1484.4,520.037Zm0.33-15.487a22.288,22.288,0,0,0-1.71-4.887c-1.35-3.157-5.14-5.9-8.65-7.517a10.971,10.971,0,1,0,20.67-.132C1487.02,495.754,1485.03,501.392,1484.73,504.55Zm0-13c-0.35-2.933-2.29-8.42-9.74-12.029a10.368,10.368,0,1,0,19.49,0C1486.97,483.125,1485.03,488.612,1484.73,491.545Zm-60.09,97.485c7.08,6.334,18.65,5.638,26.29,3.176-2.08-1.879-12.09-8.589-22.1-5.187,8.77-5.77,9.13-17.5,8.77-20.241C1430.92,571.175,1423.48,579.764,1424.64,589.03Zm23.03-27.346c-3.76,3.759-10.82,12.837-9.84,20.918,6.02,5.432,17.07,6.747,26.83,1.053-0.98-.508-13.54-5.639-22.97-2.838C1448.72,576.532,1450.45,568.7,1447.67,561.684ZM1484.43,467c-4.11,4.831-5.33,11.991-.15,15.506C1489.54,479.121,1488.49,472,1484.43,467Z" transform="translate(-1327 -467)"/>
</svg>
